<?xml version="1.0" encoding="UTF-8"?>
<svg version="1.1" xmlns="http://www.w3.org/2000/svg" width="462" height="479">
<path d="M0 0 C152.46 0 304.92 0 462 0 C462 158.07 462 316.14 462 479 C309.54 479 157.08 479 0 479 C0 320.93 0 162.86 0 0 Z " fill="#F0C002" transform="translate(0,0)"/>
<path d="M0 0 C0.24492187 0.79664062 0.48984375 1.59328125 0.7421875 2.4140625 C3.33379936 9.75994163 5.72462414 13.42043706 12.6953125 17.01171875 C15.08789598 18.07554828 15.08789598 18.07554828 18 19 C18 19.66 18 20.32 18 21 C18.53625 21.103125 19.0725 21.20625 19.625 21.3125 C22.63887507 22.18493752 25.21738652 23.55304099 28 25 C29.11375 25.556875 30.2275 26.11375 31.375 26.6875 C32.24125 27.120625 33.1075 27.55375 34 28 C34 28.66 34 29.32 34 30 C34.51304687 30.08894531 35.02609375 30.17789063 35.5546875 30.26953125 C38.97973404 31.29266816 41.99961827 32.98720138 45.125 34.6875 C46.11935059 35.22225952 46.11935059 35.22225952 47.13378906 35.76782227 C51.859776 38.32840002 56.48633691 41.02463546 61.046875 43.87109375 C63.09961646 45.14484861 63.09961646 45.14484861 66 46 C66 46.66 66 47.32 66 48 C66.76828125 48.20496094 67.5365625 48.40992188 68.328125 48.62109375 C73.46510633 50.55019418 78.02214122 53.29757575 82.75 56.0625 C84.6404555 57.15784467 86.53107239 58.25291087 88.421875 59.34765625 C89.25299805 59.83242432 90.08412109 60.31719238 90.94042969 60.81665039 C92.27267225 61.58210555 93.62572438 62.31286219 95 63 C95.13907634 74.76114924 95.24566016 86.52210258 95.31087303 98.28390694 C95.34217367 103.74555652 95.38462417 109.20664316 95.45263672 114.66796875 C95.51787323 119.93942667 95.55371558 125.21034346 95.56926346 130.48217392 C95.58034201 132.49246616 95.60197641 134.50272908 95.63438034 136.51279068 C95.67800093 139.33095318 95.6839318 142.14688576 95.68115234 144.96533203 C95.702724 145.79467758 95.72429565 146.62402313 95.746521 147.47850037 C95.68517306 153.23498131 95.68517306 153.23498131 93.64563179 155.51219749 C93.10446661 155.96719942 92.56330143 156.42220135 92.0057373 156.89099121 C89.1053579 159.41446763 88.52205563 161.06714516 88.24050903 164.89755249 C88.20553422 166.85766432 88.20326112 168.81852911 88.22705078 170.77880859 C88.21642105 171.85257751 88.20579132 172.92634644 88.19483948 174.03265381 C88.16679875 177.57172581 88.18084628 181.10930532 88.1953125 184.6484375 C88.18406224 187.10610252 88.17018156 189.56375679 88.15377808 192.02139282 C88.1177166 198.48232988 88.11736974 204.94279396 88.12445068 211.40380859 C88.12536307 217.99976074 88.09251236 224.59553514 88.0625 231.19140625 C88.00861546 244.12764354 87.99131189 257.06366115 88 270 C87.26885986 270.40839111 86.53771973 270.81678223 85.78442383 271.23754883 C83.05376892 272.76329278 80.32350786 274.28973854 77.59350586 275.81665039 C75.83802811 276.79822596 74.08210323 277.77900173 72.32617188 278.75976562 C71.21435547 279.38173828 70.10253906 280.00371094 68.95703125 280.64453125 C67.93585205 281.21534424 66.91467285 281.78615723 65.86254883 282.37426758 C63.21615152 283.87724068 60.60363169 285.42441709 58 287 C54.19311188 289.23876676 50.37732238 291.46228476 46.5625 293.6875 C45.48806641 294.31454834 44.41363281 294.94159668 43.30664062 295.58764648 C36.4809745 299.5667136 29.64845788 303.53022574 22.74609375 307.375 C20.33970649 308.79897881 18.26222937 310.35108265 16.0625 312.0625 C12.30024459 314.5263471 9.92606763 313.71199066 5.625 312.875 C-6.29667166 311.64984797 -15.76549503 319.67571094 -25.43505859 325.77685547 C-30.74917854 329.11507026 -36.19087163 332.23506767 -41.61975098 335.38156128 C-44.65005954 337.14188138 -47.67091817 338.91820985 -50.69140625 340.6953125 C-51.58924332 341.22338753 -51.58924332 341.22338753 -52.50521851 341.76213074 C-60.43516057 346.42937268 -68.34956239 351.1229609 -76.25952148 355.82397461 C-78.29670859 357.03404963 -80.33722148 358.23855256 -82.38183594 359.43603516 C-83.9756226 360.38808638 -85.55252625 361.37028275 -87.09472656 362.40380859 C-89.85282165 364.20914828 -91.4311771 365.07342253 -94.75390625 364.64453125 C-99.60343399 362.18767063 -104.27154149 359.47511111 -108.9375 356.6875 C-111.10206352 355.40879926 -113.26744834 354.1314879 -115.43359375 352.85546875 C-116.5304248 352.20884277 -117.62725586 351.5622168 -118.75732422 350.89599609 C-123.64009354 348.0410355 -128.56739712 345.26768596 -133.5 342.5 C-142.87697869 337.23044809 -152.18172368 331.84403451 -161.4609375 326.40429688 C-162.89759766 325.5622168 -162.89759766 325.5622168 -164.36328125 324.703125 C-165.63619019 323.95530762 -165.63619019 323.95530762 -166.93481445 323.19238281 C-168.2681015 322.42257859 -169.62297338 321.68851331 -171 321 C-171.88671875 319.0390625 -171.88671875 319.0390625 -172.6875 316.625 C-172.95949219 315.83351563 -173.23148438 315.04203125 -173.51171875 314.2265625 C-174 312 -174 312 -173 309 C-172.40832031 309.37253906 -171.81664062 309.74507813 -171.20703125 310.12890625 C-170.02173828 310.83853516 -170.02173828 310.83853516 -168.8125 311.5625 C-168.03519531 312.03816406 -167.25789063 312.51382812 -166.45703125 313.00390625 C-163.39007215 314.24726805 -162.16411232 313.87693419 -159 313 C-156.36081816 311.7380198 -156.36081816 311.7380198 -153.66796875 310.11328125 C-152.63446289 309.51177246 -151.60095703 308.91026367 -150.53613281 308.29052734 C-149.43108398 307.63777832 -148.32603516 306.9850293 -147.1875 306.3125 C-146.02349354 305.63167145 -144.85909932 304.95150545 -143.69433594 304.27197266 C-141.29776142 302.87237807 -138.90355377 301.46886013 -136.51123047 300.06201172 C-133.25409242 298.14734198 -129.98957455 296.24560003 -126.72265625 294.34765625 C-118.68784945 289.67734746 -110.65995105 284.99746424 -102.6796875 280.234375 C-101.15456543 279.32582764 -101.15456543 279.32582764 -99.59863281 278.39892578 C-97.65553073 277.23976489 -95.71467017 276.07683601 -93.77636719 274.90966797 C-92.91430664 274.39549316 -92.05224609 273.88131836 -91.1640625 273.3515625 C-90.40561035 272.89604004 -89.6471582 272.44051758 -88.86572266 271.97119141 C-87 271 -87 271 -85 271 C-85 270.34 -85 269.68 -85 269 C-85.77859375 268.78859375 -86.5571875 268.5771875 -87.359375 268.359375 C-92.31143468 266.51032267 -96.68633438 263.89866697 -101.25 261.25 C-109.76612692 256.36800436 -118.34094621 251.62364708 -127 247 C-136.30170865 242.02477981 -145.52283669 236.92877059 -154.68994141 231.70996094 C-162.07539399 227.50787071 -169.50795794 223.39763794 -176.97216797 219.3371582 C-177.75221191 218.91136475 -178.53225586 218.48557129 -179.3359375 218.046875 C-180.02220215 217.67401367 -180.7084668 217.30115234 -181.41552734 216.91699219 C-183 216 -183 216 -184 215 C-184.12354303 213.60224526 -184.17947468 212.1984363 -184.20773315 210.79551697 C-184.2278949 209.88856079 -184.24805664 208.98160461 -184.26882935 208.04716492 C-184.28565765 207.04409805 -184.30248596 206.04103119 -184.31982422 205.00756836 C-184.34085205 203.95713348 -184.36187988 202.90669861 -184.38354492 201.82443237 C-184.56663363 192.11608927 -184.67259086 182.40652517 -184.75568962 172.69686031 C-184.81232387 166.16947538 -184.89391402 159.644547 -185.03564453 153.1184082 C-185.17199818 146.81462939 -185.24450987 140.51307928 -185.27234268 134.20791817 C-185.29381969 131.80551106 -185.33788012 129.40319456 -185.405056 127.00163078 C-185.89387022 108.68255122 -185.89387022 108.68255122 -182.75781059 104.24051476 C-179.31361864 101.05855877 -175.38290938 99.59215223 -171 98 C-168.96452437 96.85854131 -166.94635958 95.68495103 -164.95703125 94.46484375 C-162.90994449 93.28716522 -160.86173171 92.1114422 -158.8125 90.9375 C-157.11168147 89.9595355 -155.41086461 88.98156809 -153.71014404 88.00343323 C-151.96320818 86.99905965 -150.21579442 85.9955222 -148.46826172 84.9921875 C-117.91130205 67.50807777 -117.91130205 67.50807777 -87.625 49.5625 C-79.8799275 44.87755131 -72.02606631 40.38208049 -64.18164062 35.86621094 C-48.23597811 26.68579078 -32.29871352 17.49150341 -16.59228516 7.90551758 C-3.55188185 0 -3.55188185 0 0 0 Z " fill="#5FA36D" transform="translate(317,79)"/>
<path d="M0 0 C2.90234375 1.35546875 2.90234375 1.35546875 5.9375 3.1875 C7.15613753 3.91164765 8.37489761 4.63558907 9.59375 5.359375 C10.27824219 5.77123047 10.96273437 6.18308594 11.66796875 6.60742188 C14.33929408 8.20261028 17.02750571 9.76677894 19.71875 11.328125 C29.22325143 16.84236543 38.70122281 22.39377549 48.10205078 28.08300781 C52.47192678 30.71516264 56.91872958 33.17237081 61.4140625 35.58203125 C65.6867207 37.92489368 69.84384609 40.45762386 74 43 C71.73786526 45.47490306 69.44745997 47.02495856 66.51953125 48.64453125 C65.61533447 49.14911865 64.7111377 49.65370605 63.77954102 50.17358398 C62.80041748 50.71442627 61.82129395 51.25526855 60.8125 51.8125 C58.71275431 52.98557094 56.61382052 54.16009611 54.515625 55.3359375 C52.89430664 56.24424316 52.89430664 56.24424316 51.24023438 57.17089844 C46.15180314 60.043301 41.10515257 62.98566281 36.0625 65.9375 C34.57641235 66.80713379 34.57641235 66.80713379 33.06030273 67.69433594 C31.04828103 68.87234298 29.03648093 70.05072862 27.02490234 71.22949219 C23.99420185 73.00339372 20.96056038 74.77214882 17.92578125 76.5390625 C8.30635931 82.13998973 -1.30000606 87.76092126 -10.875 93.4375 C-19.93939708 98.80893386 -29.05491377 104.08814034 -38.18701172 109.34350586 C-46.45311581 114.10179727 -54.69563415 118.89915613 -62.9296875 123.71264648 C-68.2547353 126.82288646 -73.58661065 129.92083226 -78.9296875 133 C-79.51083313 133.33491455 -80.09197876 133.6698291 -80.69073486 134.01489258 C-83.49211183 135.62873886 -86.29440788 137.24096889 -89.09765625 138.8515625 C-90.11472656 139.43679687 -91.13179688 140.02203125 -92.1796875 140.625 C-93.06382324 141.13289062 -93.94795898 141.64078125 -94.85888672 142.1640625 C-95.8954541 142.76992187 -96.93202148 143.37578125 -98 144 C-98.80993156 144.36830492 -99.61986313 144.73660984 -100.45433807 145.11607552 C-105.73197756 147.64074902 -105.73197756 147.64074902 -108.9101429 152.28765488 C-109.23346143 155.13152426 -109.23834262 157.82638648 -109.13525391 160.68701172 C-109.13744431 162.28303474 -109.13744431 162.28303474 -109.13967896 163.91130066 C-109.13272531 167.41952319 -109.05502626 170.92239654 -108.9765625 174.4296875 C-108.95790612 176.8648895 -108.94367393 179.3001291 -108.9336853 181.73538208 C-108.89554398 188.13806196 -108.79734948 194.53846499 -108.68664551 200.94024658 C-108.58425852 207.47547604 -108.53865733 214.01107429 -108.48828125 220.546875 C-108.3811057 233.3655535 -108.21241252 246.18265554 -108 259 C-107.33319214 259.35976929 -106.66638428 259.71953857 -105.97937012 260.09020996 C-102.89186938 261.75689737 -99.80530727 263.42531606 -96.71875 265.09375 C-95.67041992 265.65932617 -94.62208984 266.22490234 -93.54199219 266.80761719 C-86.48188611 270.62594882 -79.47426377 274.52722163 -72.5 278.5 C-63.61272337 283.55186302 -54.66056697 288.46793352 -45.66186523 293.31835938 C-37.41724237 297.7639827 -29.21998679 302.28995518 -21.04345703 306.859375 C-17.36565179 308.91226701 -13.6825942 310.95571477 -10 313 C-10 313.66 -10 314.32 -10 315 C-12.64078234 316.52352827 -15.28156731 318.047052 -17.92236328 319.57055664 C-20.25671642 320.91732423 -22.59103235 322.26415607 -24.92529297 323.61108398 C-30.83978489 327.02377298 -36.75488441 330.43539406 -42.671875 333.84375 C-43.74171631 334.46048584 -44.81155762 335.07722168 -45.91381836 335.71264648 C-48.05425087 336.94567752 -50.19569077 338.17696147 -52.33813477 339.40649414 C-57.8571972 342.5801962 -63.3440241 345.79700699 -68.79296875 349.08984375 C-70.43531494 350.07392212 -70.43531494 350.07392212 -72.11083984 351.07788086 C-74.19793389 352.33086938 -76.27810274 353.59548865 -78.35009766 354.87329102 C-79.28257324 355.43072998 -80.21504883 355.98816895 -81.17578125 356.5625 C-82.39648315 357.30693359 -82.39648315 357.30693359 -83.6418457 358.06640625 C-86.6057001 359.23979679 -87.98754989 358.95940532 -91 358 C-93.31396484 356.99121094 -93.31396484 356.99121094 -95.7109375 355.734375 C-96.61368408 355.26338379 -97.51643066 354.79239258 -98.4465332 354.30712891 C-99.41292725 353.79327637 -100.37932129 353.27942383 -101.375 352.75 C-102.39231201 352.2142334 -103.40962402 351.6784668 -104.45776367 351.12646484 C-112.44031972 346.89458549 -120.31122748 342.47949786 -128.1574707 338.0012207 C-138.60885389 332.04830358 -149.21500474 326.39071867 -159.81640625 320.7109375 C-164.90966686 317.97370051 -169.98723059 315.20791935 -175.0625 312.4375 C-176.37263062 311.72291626 -176.37263062 311.72291626 -177.70922852 310.99389648 C-179.356304 310.09428449 -180.99316039 309.17564482 -182.61791992 308.23632812 C-184.96937703 306.92096402 -184.96937703 306.92096402 -187.5793457 306.23242188 C-190.55717259 305.19624738 -191.99198495 304.45866057 -194 302 C-195.36584742 295.56291623 -195.16715821 289.17866356 -195.0625 282.625 C-195.06020187 280.67675873 -195.06156451 278.72851004 -195.06640625 276.78027344 C-195.0710443 272.66268536 -195.05015252 268.54614825 -195.01611328 264.42871094 C-194.98434824 259.00754658 -195.06918257 253.59548302 -195.19932556 248.17599487 C-195.30156091 243.90154574 -195.37420299 239.62685124 -195.44284058 235.35174561 C-195.48074391 233.29492829 -195.52891253 231.23827284 -195.587677 229.1819458 C-195.66534965 226.29254697 -195.6973533 223.40591622 -195.71875 220.515625 C-195.75165634 219.66843903 -195.78456268 218.82125305 -195.81846619 217.94839478 C-195.79873675 211.90951454 -195.79873675 211.90951454 -193.40904427 209.18839264 C-192.77375235 208.59597527 -192.13846043 208.00355789 -191.48391724 207.39318848 C-187.80113033 203.34439129 -187.22671254 200.54494932 -187.2988739 195.15719604 C-187.34768204 194.17622955 -187.39649017 193.19526306 -187.44677734 192.18457031 C-187.46973373 191.12978485 -187.49269012 190.07499939 -187.51634216 188.98825073 C-187.56846411 186.70824979 -187.63572802 184.42855473 -187.71656418 182.14939117 C-187.837464 178.53245707 -187.90203885 174.91858874 -187.94961548 171.29998779 C-188.08922529 161.01817835 -188.28463769 150.74010067 -188.62695312 140.46289062 C-188.83274839 134.16355915 -188.93485115 127.86952138 -188.97203445 121.56703949 C-189.00604738 119.17574505 -189.07866348 116.78465971 -189.19157028 114.3957901 C-189.8948145 99.1976757 -189.8948145 99.1976757 -187 93 C-181.91776614 87.64178346 -175.25535073 84.81332381 -168.51356888 82.07726288 C-165.03969774 80.5884346 -162.03438568 78.69329782 -158.875 76.625 C-154.36832136 73.76423878 -149.74181196 71.19972489 -145.05029297 68.65917969 C-139.71562083 65.7574323 -134.4225623 62.7812894 -129.125 59.8125 C-128.02414063 59.19697266 -126.92328125 58.58144531 -125.7890625 57.94726562 C-124.726875 57.35236328 -123.6646875 56.75746094 -122.5703125 56.14453125 C-121.61914551 55.61190674 -120.66797852 55.07928223 -119.68798828 54.53051758 C-117.87785225 53.49984158 -116.08436598 52.43942638 -114.30786133 51.35180664 C-110.91639794 49.36529096 -108.38555015 48.67167058 -104.52734375 49.5859375 C-103.67269531 49.84632812 -102.81804687 50.10671875 -101.9375 50.375 C-96.64322465 51.49715619 -94.03500263 50.38792226 -89.4375 47.625 C-88.44621094 46.95726562 -87.45492187 46.28953125 -86.43359375 45.6015625 C-84 44 -84 44 -82 44 C-82 43.34 -82 42.68 -82 42 C-81.04738281 41.62359375 -80.09476562 41.2471875 -79.11328125 40.859375 C-74.21704618 38.75626126 -69.74310091 35.99796024 -65.1875 33.25 C-55.70637315 27.58562622 -46.16732009 22.03231281 -36.57763672 16.55371094 C-31.37709638 13.57151757 -26.22367349 10.54545704 -21.15234375 7.34765625 C-20.24693848 6.78183838 -19.3415332 6.21602051 -18.40869141 5.63305664 C-16.72993299 4.57708382 -15.06079337 3.50559251 -13.40380859 2.41577148 C-8.56404449 -0.6170567 -5.74326038 -1.75000522 0 0 Z " fill="#9FAA55" transform="translate(242,35)"/>
<path d="M0 0 C2.37402344 1.17651367 2.37402344 1.17651367 4.859375 2.66796875 C5.79716797 3.22419922 6.73496094 3.78042969 7.70117188 4.35351562 C8.70728516 4.95873047 9.71339844 5.56394531 10.75 6.1875 C12.9207282 7.47459234 15.09264023 8.75968984 17.265625 10.04296875 C18.38130859 10.70216309 19.49699219 11.36135742 20.64648438 12.04052734 C25.88858846 15.10350982 31.19212437 18.05294569 36.5 21 C47.80754189 27.29393711 58.9903937 33.78634722 70.15185547 40.33496094 C75.54517678 43.48792265 80.96027834 46.60353069 86.37841797 49.71362305 C91.89113301 52.89113301 91.89113301 52.89113301 93 54 C93.12359355 55.41043848 93.17948291 56.82688552 93.20773315 58.2424469 C93.2278949 59.15781723 93.24805664 60.07318756 93.26882935 61.01629639 C93.28565765 62.02871399 93.30248596 63.04113159 93.31982422 64.08422852 C93.34085205 65.14441696 93.36187988 66.20460541 93.38354492 67.29692078 C93.5666301 77.09520442 93.67258946 86.89469792 93.75568962 96.69429111 C93.81232518 103.28219876 93.89391879 109.86767263 94.03564453 116.4543457 C94.1719912 122.81647663 94.24450877 129.17639942 94.27234268 135.53989983 C94.29382082 137.96463275 94.33788355 140.38927582 94.405056 142.81317329 C94.89383153 161.30199495 94.89383153 161.30199495 91.75894356 165.76804352 C88.31746583 168.95846978 84.38873442 170.41445979 80 172 C77.94094683 173.15287272 75.8993911 174.33825509 73.88671875 175.5703125 C71.82130725 176.75694145 69.75487119 177.94178857 67.6875 179.125 C65.40206902 180.43832412 63.116919 181.75213727 60.83203125 183.06640625 C59.69072754 183.7227002 58.54942383 184.37899414 57.37353516 185.05517578 C52.19678763 188.03954188 47.03483341 191.0490107 41.875 194.0625 C40.90522217 194.62839844 39.93544434 195.19429687 38.9362793 195.77734375 C33.7687134 198.79414978 28.60532943 201.8179565 23.4453125 204.84765625 C22.36652832 205.47986084 21.28774414 206.11206543 20.17626953 206.76342773 C18.12129743 207.96782145 16.06750486 209.17423094 14.01513672 210.38305664 C12.17833542 211.45877959 10.33201695 212.51847181 8.47509766 213.55908203 C6.02062675 214.92736812 6.02062675 214.92736812 3.97412109 216.49951172 C1.87310755 217.9257234 0.52502748 218.66085974 -2 219 C-6.50806982 217.62018986 -10.3488226 215.29270527 -14.375 212.875 C-15.54324413 212.20452643 -16.71327176 211.53715144 -17.88500977 210.87280273 C-20.2145883 209.546359 -22.53028694 208.20207317 -24.84326172 206.84619141 C-28.15912281 204.90693838 -31.50680925 203.03879581 -34.87524414 201.19311523 C-36.99606224 200.03039372 -39.10820245 198.85312866 -41.21875 197.671875 C-45.97423767 195.0122337 -50.73718714 192.36612494 -55.50073242 189.72094727 C-57.78759869 188.45104362 -60.07422079 187.18070019 -62.3605957 185.90991211 C-67.82823984 182.87096482 -73.29708655 179.83426342 -78.77046204 176.8056488 C-81.28381521 175.41476751 -83.79649027 174.02266377 -86.30911255 172.63046265 C-87.51537637 171.96255054 -88.72197824 171.29524857 -89.92892456 170.62857056 C-91.60189382 169.70442011 -93.27363517 168.77804784 -94.9453125 167.8515625 C-95.89937988 167.32385254 -96.85344727 166.79614258 -97.83642578 166.25244141 C-100 165 -100 165 -101 164 C-101.12354303 162.60224526 -101.17947468 161.1984363 -101.20773315 159.79551697 C-101.2278949 158.88856079 -101.24805664 157.98160461 -101.26882935 157.04716492 C-101.28565765 156.04409805 -101.30248596 155.04103119 -101.31982422 154.00756836 C-101.34085205 152.95713348 -101.36187988 151.90669861 -101.38354492 150.82443237 C-101.56663363 141.11608927 -101.67259086 131.40652517 -101.75568962 121.69686031 C-101.81232387 115.16947538 -101.89391402 108.644547 -102.03564453 102.1184082 C-102.17199818 95.81462939 -102.24450987 89.51307928 -102.27234268 83.20791817 C-102.29381969 80.80551106 -102.33788012 78.40319456 -102.405056 76.00163078 C-102.89387022 57.68255122 -102.89387022 57.68255122 -99.75781059 53.24051476 C-96.31361864 50.05855877 -92.38290938 48.59215223 -88 47 C-85.96452437 45.85854131 -83.94635958 44.68495103 -81.95703125 43.46484375 C-79.90994449 42.28716522 -77.86173171 41.1114422 -75.8125 39.9375 C-74.11168147 38.9595355 -72.41086461 37.98156809 -70.71014404 37.00343323 C-68.96320818 35.99905965 -67.21579442 34.9955222 -65.46826172 33.9921875 C-59.93379094 30.81315881 -54.4039748 27.62607543 -48.875 24.4375 C-47.81216797 23.82471191 -46.74933594 23.21192383 -45.65429688 22.58056641 C-37.02872995 17.6031686 -28.4227051 12.59268612 -19.82568359 7.56616211 C-18.01591941 6.50823575 -16.20390262 5.45414895 -14.38916016 4.40478516 C-12.89340236 3.52530525 -11.41106404 2.62210995 -9.95068359 1.68505859 C-6.09720729 -0.74112743 -4.3427323 -1.2709841 0 0 Z " fill="#FDFDFC" transform="translate(234,130)"/>
<path d="M0 0 C2.90234375 1.35546875 2.90234375 1.35546875 5.9375 3.1875 C7.15613753 3.91164765 8.37489761 4.63558907 9.59375 5.359375 C10.62048828 5.9771582 10.62048828 5.9771582 11.66796875 6.60742188 C14.33929408 8.20261028 17.02750571 9.76677894 19.71875 11.328125 C29.22325143 16.84236543 38.70122281 22.39377549 48.10205078 28.08300781 C52.47192678 30.71516264 56.91872958 33.17237081 61.4140625 35.58203125 C65.6867207 37.92489368 69.84384609 40.45762386 74 43 C71.73786526 45.47490306 69.44745997 47.02495856 66.51953125 48.64453125 C65.61533447 49.14911865 64.7111377 49.65370605 63.77954102 50.17358398 C62.80041748 50.71442627 61.82129395 51.25526855 60.8125 51.8125 C58.71275431 52.98557094 56.61382052 54.16009611 54.515625 55.3359375 C52.89430664 56.24424316 52.89430664 56.24424316 51.24023438 57.17089844 C46.15180314 60.043301 41.10515257 62.98566281 36.0625 65.9375 C34.57641235 66.80713379 34.57641235 66.80713379 33.06030273 67.69433594 C31.04828103 68.87234298 29.03648093 70.05072862 27.02490234 71.22949219 C23.99420185 73.00339372 20.96056038 74.77214882 17.92578125 76.5390625 C8.30635931 82.13998973 -1.30000606 87.76092126 -10.875 93.4375 C-19.93939708 98.80893386 -29.05491377 104.08814034 -38.18701172 109.34350586 C-46.45169788 114.10098106 -54.6931058 118.89700377 -62.92529297 123.71044922 C-68.27413839 126.83510995 -73.63095695 129.94532858 -79 133.03515625 C-79.58587891 133.37243744 -80.17175781 133.70971863 -80.77539062 134.05722046 C-83.6068348 135.68680007 -86.4393741 137.31443228 -89.2734375 138.93945312 C-94.3992421 141.88646799 -99.46500026 144.85901832 -104.37890625 148.15014648 C-106 149 -106 149 -109 149 C-109.27829237 137.38697302 -109.49137963 125.77474127 -109.62174606 114.15905666 C-109.68432497 108.7649131 -109.76915747 103.37305342 -109.90527344 97.98022461 C-110.03586823 92.77342976 -110.10744805 87.56882764 -110.13852692 82.36052132 C-110.16066592 80.37591069 -110.20390516 78.39141763 -110.26876068 76.40774345 C-110.66620528 63.74542924 -110.66620528 63.74542924 -109 59 C-105.43334125 55.27600765 -101.79898145 53.70155168 -97 52 C-95.66004892 51.23053776 -94.33935017 50.42499978 -93.0546875 49.56640625 C-92.00539062 48.90511719 -90.95609375 48.24382812 -89.875 47.5625 C-88.26238281 46.54349609 -88.26238281 46.54349609 -86.6171875 45.50390625 C-84 44 -84 44 -82 44 C-82 43.34 -82 42.68 -82 42 C-81.04738281 41.62359375 -80.09476563 41.2471875 -79.11328125 40.859375 C-74.21704618 38.75626126 -69.74310091 35.99796024 -65.1875 33.25 C-55.70637315 27.58562622 -46.16732009 22.03231281 -36.57763672 16.55371094 C-31.37709638 13.57151757 -26.22367349 10.54545704 -21.15234375 7.34765625 C-20.24693848 6.78183838 -19.3415332 6.21602051 -18.40869141 5.63305664 C-16.72993299 4.57708382 -15.06079337 3.50559251 -13.40380859 2.41577148 C-8.56404449 -0.6170567 -5.74326038 -1.75000522 0 0 Z " fill="#C63A4A" transform="translate(242,35)"/>
<path d="M0 0 C8.71631138 4.61123359 17.37810358 9.28923939 25.9375 14.1875 C33.90772653 18.72219251 41.92476271 23.15518195 50 27.5 C57.84552433 31.72163627 65.6337273 36.02764396 73.375 40.4375 C81.52202747 45.07693518 89.73293768 49.57811136 98 54 C107.2223023 58.93282767 116.35821381 63.99333341 125.44604492 69.16918945 C133.35237559 73.66140725 141.33419271 78.00415422 149.33862305 82.31860352 C157.58306346 86.76418168 165.78017189 91.29004386 173.95654297 95.859375 C177.63434821 97.91226701 181.3174058 99.95571477 185 102 C185 102.66 185 103.32 185 104 C182.35921766 105.52352827 179.71843269 107.047052 177.07763672 108.57055664 C174.74328358 109.91732423 172.40896765 111.26415607 170.07470703 112.61108398 C164.16021511 116.02377298 158.24511559 119.43539406 152.328125 122.84375 C151.25828369 123.46048584 150.18844238 124.07722168 149.08618164 124.71264648 C146.94574913 125.94567752 144.80430923 127.17696147 142.66186523 128.40649414 C137.1428028 131.5801962 131.6559759 134.79700699 126.20703125 138.08984375 C125.11213379 138.745896 124.01723633 139.40194824 122.88916016 140.07788086 C120.80206611 141.33086938 118.72189726 142.59548865 116.64990234 143.87329102 C115.71742676 144.43072998 114.78495117 144.98816895 113.82421875 145.5625 C113.01041748 146.05878906 112.19661621 146.55507813 111.3581543 147.06640625 C108.3942999 148.23979679 107.01245011 147.95940532 104 147 C101.68603516 145.99121094 101.68603516 145.99121094 99.2890625 144.734375 C98.38631592 144.26338379 97.48356934 143.79239258 96.5534668 143.30712891 C95.58707275 142.79327637 94.62067871 142.27942383 93.625 141.75 C92.60768799 141.2142334 91.59037598 140.6784668 90.54223633 140.12646484 C82.55968028 135.89458549 74.68877252 131.47949786 66.8425293 127.0012207 C56.39114611 121.04830358 45.78499526 115.39071867 35.18359375 109.7109375 C30.09033314 106.97370051 25.01276941 104.20791935 19.9375 101.4375 C19.06407959 100.96111084 18.19065918 100.48472168 17.29077148 99.99389648 C15.643696 99.09428449 14.00683961 98.17564482 12.38208008 97.23632812 C10.03062297 95.92096402 10.03062297 95.92096402 7.4206543 95.23242188 C4.44282741 94.19624738 3.00801505 93.45866057 1 91 C-0.36603948 84.56201105 -0.16286164 78.1793604 -0.0625 71.625 C-0.06494122 69.68260808 -0.07143563 67.74021743 -0.08178711 65.79785156 C-0.09565468 61.68602329 -0.08210396 57.57556482 -0.046875 53.46386719 C0.00848045 46.85316817 -0.00661277 40.24363153 -0.03125 33.6328125 C-0.06662141 22.42158512 -0.04919828 11.21115227 0 0 Z " fill="#D59730" transform="translate(47,246)"/>
<path d="M0 0 C0.27829237 11.61302698 0.49137963 23.22525873 0.62174606 34.84094334 C0.68432497 40.2350869 0.76915747 45.62694658 0.90527344 51.01977539 C1.03586823 56.22657024 1.10744805 61.43117236 1.13852692 66.63947868 C1.16066592 68.62408931 1.20390516 70.60858237 1.26876068 72.59225655 C1.66654239 85.26531077 1.66654239 85.26531077 0 90 C-3.5680526 93.71803825 -7.19015908 95.32637237 -12 97 C-13.16645654 97.64684869 -14.31710683 98.32496766 -15.43359375 99.0546875 C-27.5736896 106.41136457 -39.8454523 113.54604265 -52.09667969 120.71533203 C-56.60932131 123.35628986 -61.12091453 125.99903682 -65.6309967 128.6443634 C-68.72333127 130.45798603 -71.81713534 132.26897151 -74.91479492 134.07348633 C-80.11319994 137.10537555 -85.29168691 140.15573209 -90.38671875 143.359375 C-91.17079102 143.84543213 -91.95486328 144.33148926 -92.76269531 144.83227539 C-94.15449104 145.69956974 -95.53654482 146.58282499 -96.90527344 147.48608398 C-99.71577621 149.22463704 -101.43686737 150.074978 -104.7578125 149.6328125 C-109.61112822 147.18861253 -114.27366097 144.47384486 -118.9375 141.6875 C-121.10206352 140.40879926 -123.26744834 139.1314879 -125.43359375 137.85546875 C-126.5304248 137.20884277 -127.62725586 136.5622168 -128.75732422 135.89599609 C-133.64009354 133.0410355 -138.56739712 130.26768596 -143.5 127.5 C-152.87697869 122.23044809 -162.18172368 116.84403451 -171.4609375 111.40429688 C-172.89759766 110.5622168 -172.89759766 110.5622168 -174.36328125 109.703125 C-175.21188721 109.20458008 -176.06049316 108.70603516 -176.93481445 108.19238281 C-178.2681015 107.42257859 -179.62297338 106.68851331 -181 106 C-181.88671875 104.0390625 -181.88671875 104.0390625 -182.6875 101.625 C-182.95949219 100.83351563 -183.23148438 100.04203125 -183.51171875 99.2265625 C-184 97 -184 97 -183 94 C-182.40832031 94.37253906 -181.81664062 94.74507813 -181.20703125 95.12890625 C-180.02173828 95.83853516 -180.02173828 95.83853516 -178.8125 96.5625 C-177.64654297 97.27599609 -177.64654297 97.27599609 -176.45703125 98.00390625 C-173.39007215 99.24726805 -172.16411232 98.87693419 -169 98 C-166.36081816 96.7380198 -166.36081816 96.7380198 -163.66796875 95.11328125 C-162.63502686 94.51209473 -161.60208496 93.9109082 -160.5378418 93.29150391 C-159.432229 92.63843262 -158.32661621 91.98536133 -157.1875 91.3125 C-156.01836884 90.62873784 -154.84884738 89.94564264 -153.67895508 89.26318359 C-151.27723187 87.86069592 -148.8778729 86.45429119 -146.48046875 85.04443359 C-143.31506641 83.1834517 -140.14316428 81.33385866 -136.96875 79.48828125 C-130.97343523 76.00196326 -124.98603009 72.50223058 -119 69 C-117.86691406 68.33742188 -116.73382813 67.67484375 -115.56640625 66.9921875 C-102.45796436 59.32614929 -89.3668175 51.63292943 -76.3125 43.875 C-65.38862619 37.38591662 -54.40107342 31.01367628 -43.38671875 24.6796875 C-35.07228078 19.8961779 -26.79006068 15.05770098 -18.5078125 10.21875 C-17.1760498 9.44144531 -17.1760498 9.44144531 -15.81738281 8.6484375 C-13.76761842 7.44912995 -11.72043249 6.24541217 -9.67480469 5.0390625 C-8.58329102 4.39710938 -7.49177734 3.75515625 -6.3671875 3.09375 C-5.3654248 2.50271484 -4.36366211 1.91167969 -3.33154297 1.30273438 C-1 0 -1 0 0 0 Z " fill="#96759D" transform="translate(327,294)"/>
<path d="M0 0 C0.24492187 0.79664062 0.48984375 1.59328125 0.7421875 2.4140625 C3.33379936 9.75994163 5.72462414 13.42043706 12.6953125 17.01171875 C15.08789598 18.07554828 15.08789598 18.07554828 18 19 C18 19.66 18 20.32 18 21 C18.53625 21.103125 19.0725 21.20625 19.625 21.3125 C22.63887507 22.18493752 25.21738652 23.55304099 28 25 C29.11375 25.556875 30.2275 26.11375 31.375 26.6875 C32.24125 27.120625 33.1075 27.55375 34 28 C34 28.66 34 29.32 34 30 C34.51304687 30.08894531 35.02609375 30.17789063 35.5546875 30.26953125 C38.97973404 31.29266816 41.99961827 32.98720138 45.125 34.6875 C46.11935059 35.22225952 46.11935059 35.22225952 47.13378906 35.76782227 C51.859776 38.32840002 56.48633691 41.02463546 61.046875 43.87109375 C63.09961646 45.14484861 63.09961646 45.14484861 66 46 C66 46.66 66 47.32 66 48 C66.76699219 48.20496094 67.53398437 48.40992188 68.32421875 48.62109375 C73.47893601 50.55479746 78.06300766 53.29815966 82.8125 56.0625 C83.77865234 56.61744141 84.74480469 57.17238281 85.74023438 57.74414062 C92.84083005 61.84083005 92.84083005 61.84083005 94 63 C94.09519368 65.7998972 94.12553944 68.57506174 94.11352539 71.37524414 C94.11367142 72.25321152 94.11381744 73.13117889 94.1139679 74.03575134 C94.11326844 76.95224435 94.10547455 79.86867433 94.09765625 82.78515625 C94.09579218 84.80154892 94.09436823 86.81794204 94.09336853 88.83433533 C94.08954244 94.15265138 94.07971139 99.4709403 94.06866455 104.78924561 C94.05845238 110.21170688 94.05387133 115.63417252 94.04882812 121.05664062 C94.0380892 131.70443903 94.02101169 142.35221726 94 153 C91.62094832 151.73767254 89.24264702 150.47396458 86.86474609 149.20947266 C85.86494972 148.67925255 85.86494972 148.67925255 84.84495544 148.13832092 C79.01360662 145.03509634 73.30761654 141.74247647 67.625 138.375 C59.30474644 133.48135627 50.93556498 128.69199447 42.5 124 C33.2705555 118.86392529 24.12762486 113.59787148 15.01953125 108.25 C7.8947181 104.07756041 0.71453859 100.01504756 -6.5 96 C-14.72199691 91.42427998 -22.88579367 86.76426193 -31 82 C-40.24872472 76.56999563 -49.57181006 71.28858621 -58.94116211 66.06982422 C-68.35661602 60.81966005 -77.69121038 55.43659942 -87 50 C-83.57142523 47.13522487 -80.12061062 44.79396436 -76.23046875 42.6015625 C-75.10640625 41.96444336 -73.98234375 41.32732422 -72.82421875 40.67089844 C-72.2317334 40.3376355 -71.63924805 40.00437256 -71.02880859 39.66101074 C-67.87202113 37.88484691 -64.72386528 36.09347304 -61.57421875 34.3046875 C-60.93511566 33.94225952 -60.29601257 33.57983154 -59.63754272 33.2064209 C-53.56770227 29.76207207 -47.52751008 26.26790559 -41.5 22.75 C-40.52828857 22.18313477 -39.55657715 21.61626953 -38.55541992 21.03222656 C-31.19319858 16.7246296 -23.87279222 12.34886549 -16.59179688 7.90527344 C-3.55228578 0 -3.55228578 0 0 0 Z " fill="#6488C3" transform="translate(317,79)"/>
<path d="M0 0 C4.12326498 1.7409341 6.69835882 4.16393137 9 8 C9.72242558 11.9572868 9.40528319 15.06144946 7.8125 18.75 C3.08045227 24.62426614 3.08045227 24.62426614 -1.3359375 25.421875 C-5.75442656 25.66071225 -8.98313878 25.5390091 -12.5 22.6875 C-16.14840772 18.76546171 -17.4600082 16.49067562 -17.3203125 11.0625 C-16.66775529 6.86066818 -14.06185852 4.1798428 -11.3125 1.125 C-7.61416024 -0.67419232 -4.03003258 -0.52722648 0 0 Z " fill="#E1D8E4" transform="translate(228,407)"/>
<path d="M0 0 C3.6578218 2.03993908 5.66946174 3.50419262 8 7 C8.69920885 11.79689791 8.71482085 15.77459282 6.25 20 C3.13011459 22.77323148 1.28044213 23.83298581 -2.875 24.375 C-7.84247847 23.77890258 -10.81305828 21.50345952 -13.875 17.625 C-15.25784626 14.39835874 -15.49759088 12.48313618 -15 9 C-11.58746873 2.55410759 -7.52669289 -1.07524184 0 0 Z " fill="#D2E5D5" transform="translate(387,321)"/>
<path d="M0 0 C3.75212276 2.01502889 5.63644095 3.45466142 8 7 C8.42740092 12.29977145 8.52351458 15.74748241 5 20 C1.46625857 22.92795718 -1.60300307 23.53247535 -6.0703125 23.35546875 C-9.92213347 22.64592278 -12.04908605 20.26788527 -14.3125 17.25 C-15.36336151 13.81081688 -15.58209512 10.52763671 -15 7 C-11.22110556 1.00589158 -7.0297361 -1.10296426 0 0 Z " fill="#F4E1C3" transform="translate(74,313)"/>
<path d="M0 0 C4.65821708 0.0519228 7.25178017 1.18601429 10.8125 4.3125 C13.16217899 8.07356335 13.01129427 10.83908887 12.42578125 15.12109375 C11.47025922 18.53541133 9.57684517 20.20633225 6.8125 22.3125 C3.15961807 23.53012731 0.65495864 23.70325851 -3.1875 23.3125 C-6.16301795 21.53646702 -8.61505188 19.45739623 -10.1875 16.3125 C-10.60698626 12.9266466 -10.68164522 9.69181569 -10.1875 6.3125 C-7.75 3.25 -7.75 3.25 -5.1875 1.3125 C-3.63719882 -0.23780118 -2.15073999 0.06844901 0 0 Z " fill="#D2DDEE" transform="translate(388.1875,143.6875)"/>
<path d="M0 0 C3.64207936 1.61870194 6.16648143 3.42946383 8 7 C8.4085132 11.28938857 8.48025674 13.86254983 6.8125 17.8125 C4.27090012 20.87994813 2.08648492 22.65295788 -1.92578125 23.3203125 C-5.69391926 23.53320165 -7.58745351 23.25111525 -10.875 21.25 C-14.60717714 17.29828303 -15.4590873 14.53595241 -15.32421875 8.96484375 C-14.80766846 5.83442451 -13.22817871 4.16451646 -11 2 C-7.29017554 -0.4732163 -4.30111858 -0.54710902 0 0 Z " fill="#EEC6CA" transform="translate(240,49)"/>
<path d="M0 0 C3.77062132 2.07014504 7.005306 4.12142833 9 8 C9.54500097 12.99584223 9.09938694 16.01507393 6 20 C2.20558509 23.39110399 -0.6389678 23.56102298 -5.5859375 23.4296875 C-9.25566441 22.77649986 -10.84144922 20.92448816 -13 18 C-14.73739011 14.52521979 -14.59680392 10.79068864 -14 7 C-10.06486257 2.00131192 -6.46300967 -0.76035408 0 0 Z " fill="#E2E5CC" transform="translate(78,132)"/>
<path d="M0 0 C9.63981062 5.69307656 9.63981062 5.69307656 10.87109375 9.4609375 C10.96519531 10.0590625 11.05929688 10.6571875 11.15625 11.2734375 C9.3515625 11.94140625 9.3515625 11.94140625 7.15625 12.2734375 C5.5859375 11.19921875 5.5859375 11.19921875 4.03125 9.5859375 C-2.63953245 3.51000189 -10.0237715 1.53994604 -18.95703125 1.89453125 C-26.94652554 2.94321995 -33.64604834 7.18114231 -38.84375 13.2734375 C-43.48127876 20.56920235 -44.67985312 27.73589982 -44.84375 36.2734375 C-46.16375 36.2734375 -47.48375 36.2734375 -48.84375 36.2734375 C-49.28269615 27.70179455 -49.45379664 20.69834128 -44.84375 13.2734375 C-44.41964844 12.57605469 -43.99554688 11.87867188 -43.55859375 11.16015625 C-34.07373322 -2.86898286 -15.19743845 -7.33848912 0 0 Z " fill="#457393" transform="translate(243.84375,191.7265625)"/>
<path d="M0 0 C1.32 0 2.64 0 4 0 C4.9108155 11.40206072 3.18938655 19.20518232 -3.79296875 28.34765625 C-10.21173981 35.42815629 -17.72103152 39.07665651 -27.22949219 39.64013672 C-37.65017713 39.86366755 -46.03168821 37.02061389 -53.75 29.75 C-56 27 -56 27 -56 25 C-54.2109375 24.328125 -54.2109375 24.328125 -52 24 C-50.2890625 25.109375 -50.2890625 25.109375 -48.625 26.75 C-42.35267752 32.52643373 -35.92164528 34.40319968 -27.53125 34.27734375 C-19.66064912 33.41497853 -12.09804414 30.14959894 -7 24 C-1.89829572 16.62633675 -0.84713146 8.77476463 0 0 Z " fill="#447392" transform="translate(258,217)"/>
<path d="M0 0 C3.28994125 1.71447643 4.45320491 2.52355736 6.5625 5.6875 C1.96295919 6.92152314 -0.27706785 6.42110223 -4.5234375 4.41015625 C-8.92213987 2.74942168 -13.27502333 2.86224389 -17.6484375 4.53125 C-22.08149251 6.97025424 -24.80374609 9.77432765 -26.828125 14.41796875 C-27.92079972 18.48748165 -27.74530636 22.51501379 -27.4375 26.6875 C-29.0875 26.6875 -30.7375 26.6875 -32.4375 26.6875 C-33.35910842 13.2524972 -33.35910842 13.2524972 -28.921875 7.33203125 C-20.85087898 -1.60978276 -11.14936679 -5.31763747 0 0 Z " fill="#467493" transform="translate(238.4375,201.3125)"/>
<path d="M0 0 C1.65 0 3.3 0 5 0 C5.44883356 7.48055938 5.71157477 13.84610642 1 20 C-4.5556735 25.77480679 -9.06221685 28.30121631 -17.1875 28.5 C-24.24014634 28.56853051 -28.7890208 26.74495667 -34 22 C-33.67 21.34 -33.34 20.68 -33 20 C-26.48257373 20.75201072 -26.48257373 20.75201072 -24.03125 22.01171875 C-20.43417919 23.76183205 -16.89716693 23.63887982 -13 23 C-8.10349915 20.79742176 -3.52719633 17.65249888 -0.8125 12.9375 C0.37787032 8.63385345 0.1550775 4.43693967 0 0 Z " fill="#457393" transform="translate(246,217)"/>
<path d="M0 0 C2.3125 1.375 2.3125 1.375 4 4 C4.76456693 8.64918476 4.83388659 12.56571507 2.4375 16.6875 C-1.06751372 18.57481508 -3.23363485 18.04621254 -7 17 C-9.82335308 12.76497038 -9.65923537 8.97275072 -9 4 C-6.58669516 0.24597025 -4.41796011 -0.88359202 0 0 Z " fill="#E4752A" transform="translate(231,261)"/>
<path d="M0 0 C1.33804687 0.04060547 1.33804687 0.04060547 2.703125 0.08203125 C3.37859375 0.11683594 4.0540625 0.15164063 4.75 0.1875 C3.76 1.6725 3.76 1.6725 2.75 3.1875 C2.770625 4.0125 2.79125 4.8375 2.8125 5.6875 C2.75 8.1875 2.75 8.1875 1.5625 10 C-0.80982525 11.55428206 -2.47041345 11.41287188 -5.25 11.1875 C-5.25 11.8475 -5.25 12.5075 -5.25 13.1875 C-4.68410156 13.32027344 -4.11820312 13.45304687 -3.53515625 13.58984375 C-2.80167969 13.76644531 -2.06820313 13.94304687 -1.3125 14.125 C-0.58160156 14.29902344 0.14929688 14.47304688 0.90234375 14.65234375 C2.75 15.1875 2.75 15.1875 3.75 16.1875 C4 18.625 4 18.625 3.75 21.1875 C0.75261059 23.18575961 0.11652492 23.46300398 -3.25 23.4375 C-4.2709375 23.44523437 -4.2709375 23.44523437 -5.3125 23.453125 C-7.25 23.1875 -7.25 23.1875 -10.25 21.1875 C-10.25 19.8675 -10.25 18.5475 -10.25 17.1875 C-9.26 17.1875 -8.27 17.1875 -7.25 17.1875 C-6.92 18.1775 -6.59 19.1675 -6.25 20.1875 C-4.27 20.1875 -2.29 20.1875 -0.25 20.1875 C-0.25 19.1975 -0.25 18.2075 -0.25 17.1875 C-1.36375 17.001875 -2.4775 16.81625 -3.625 16.625 C-7.25 15.1875 -7.25 15.1875 -8.6875 11.875 C-9.64823009 5.57688053 -9.64823009 5.57688053 -9.25 3.1875 C-6.22031404 0.27648837 -4.13683152 -0.16329598 0 0 Z " fill="#E6823C" transform="translate(261.25,260.8125)"/>
<path d="M0 0 C0.33 0 0.66 0 1 0 C1 1.65 1 3.3 1 5 C2.65 5.33 4.3 5.66 6 6 C6.33 5.34 6.66 4.68 7 4 C7.556875 4.185625 8.11375 4.37125 8.6875 4.5625 C11.399133 5.07551165 13.34371039 4.6640724 16 4 C16 4.66 16 5.32 16 6 C14.35 6.66 12.7 7.32 11 8 C10.67 11.96 10.34 15.92 10 20 C8.68 20 7.36 20 6 20 C5.67 20.33 5.34 20.66 5 21 C0.29411765 20.29411765 0.29411765 20.29411765 -1 19 C-1.0983721 17.66956375 -1.13078592 16.33406656 -1.1328125 15 C-1.13410156 14.195625 -1.13539063 13.39125 -1.13671875 12.5625 C-1.13285156 11.716875 -1.12898437 10.87125 -1.125 10 C-1.12886719 9.154375 -1.13273438 8.30875 -1.13671875 7.4375 C-1.13542969 6.633125 -1.13414062 5.82875 -1.1328125 5 C-1.13168457 4.2575 -1.13055664 3.515 -1.12939453 2.75 C-1 1 -1 1 0 0 Z " fill="#FCF2EA" transform="translate(206,258)"/>
<path d="M0 0 C5.94 0.99 5.94 0.99 12 2 C12 2.99 12 3.98 12 5 C10.54462432 5.83848804 9.08559627 6.67063934 7.625 7.5 C6.40683594 8.19609375 6.40683594 8.19609375 5.1640625 8.90625 C3 10 3 10 1 10 C1.33 40.03 1.66 70.06 2 101 C1.34 101 0.68 101 0 101 C0 67.67 0 34.34 0 0 Z " fill="#A99151" transform="translate(132,84)"/>
<path d="M0 0 C6.625 0.75 6.625 0.75 10 3 C9.12295941 8.31882683 7.27392769 12.69912984 4 17 C1 18.375 1 18.375 -2 18 C-4.875 15.5625 -4.875 15.5625 -7 13 C-6.01 13 -5.02 13 -4 13 C-4 13.66 -4 14.32 -4 15 C-2.33388095 15.042721 -0.66617115 15.04063832 1 15 C1.33 14.67 1.66 14.34 2 14 C1.195625 13.608125 0.39125 13.21625 -0.4375 12.8125 C-3 11 -3 11 -4.0625 8.6875 C-3.97452342 4.90450689 -2.25818006 2.94247705 0 0 Z " fill="#F7ECD8" transform="translate(181,347)"/>
<path d="M0 0 C1.6875 1.5 1.6875 1.5 3 3 C3.66 3 4.32 3 5 3 C3.57929752 8.16619084 1.523781 12.92592991 -2 17 C-5.0625 18.1875 -5.0625 18.1875 -8 18 C-10.375 16.5625 -10.375 16.5625 -12 15 C-11.67 14.01 -11.34 13.02 -11 12 C-10.5875 12.515625 -10.175 13.03125 -9.75 13.5625 C-8.88375 14.2740625 -8.88375 14.2740625 -8 15 C-5.83700789 14.77242269 -5.83700789 14.77242269 -4 14 C-4.825 13.649375 -5.65 13.29875 -6.5 12.9375 C-9 11 -9 11 -9.5625 7.5625 C-9 4 -9 4 -7.3125 1.5625 C-4.54994945 -0.30408821 -3.26764255 -0.58649994 0 0 Z " fill="#EAEEF7" transform="translate(345,161)"/>
<path d="M0 0 C6.75 2.75 6.75 2.75 9 5 C8.7831713 9.87864583 7.25135812 12.43399432 4 16 C1.0625 15.625 1.0625 15.625 -2 15 C-2.33 14.34 -2.66 13.68 -3 13 C-4.32 14.32 -5.64 15.64 -7 17 C-8 14 -8 14 -6.34765625 10.64453125 C-5.59622298 9.36110983 -4.83403499 8.08393866 -4.0625 6.8125 C-3.48338867 5.83120117 -3.48338867 5.83120117 -2.89257812 4.83007812 C-1.93746912 3.21464684 -0.96989934 1.60659475 0 0 Z " fill="#F7EDDB" transform="translate(130,317)"/>
<path d="M0 0 C0.66 0 1.32 0 2 0 C1.67 1.65 1.34 3.3 1 5 C1.99 4.34 2.98 3.68 4 3 C7.6875 3.375 7.6875 3.375 11 4 C11.33 5.32 11.66 6.64 12 8 C9.69 7.01 7.38 6.02 5 5 C5.680625 5.886875 6.36125 6.77375 7.0625 7.6875 C9 11 9 11 8.75 13.875 C8.5025 14.57625 8.255 15.2775 8 16 C6.22265625 16.6484375 6.22265625 16.6484375 4 17 C2.18359375 16.0390625 2.18359375 16.0390625 0.4375 14.625 C-1.84380847 12.80605026 -3.16052648 11.94649117 -6 11 C-4.02 7.37 -2.04 3.74 0 0 Z " fill="#D9A040" transform="translate(150,329)"/>
<path d="M0 0 C0.66 0 1.32 0 2 0 C2 0.99 2 1.98 2 3 C2.99 3 3.98 3 5 3 C5 3.66 5 4.32 5 5 C4.01 5 3.02 5 2 5 C1.67 7.31 1.34 9.62 1 12 C-3.29 12 -7.58 12 -12 12 C-12.09765625 5.06640625 -12.09765625 5.06640625 -12 3 C-11 2 -11 2 -8.49609375 1.90234375 C-6.98208984 1.91974609 -6.98208984 1.91974609 -5.4375 1.9375 C-4.42558594 1.94652344 -3.41367187 1.95554687 -2.37109375 1.96484375 C-1.19740234 1.98224609 -1.19740234 1.98224609 0 2 C0 1.34 0 0.68 0 0 Z " fill="#9BC3A0" transform="translate(359,258)"/>
<path d="M0 0 C2.5 1.625 2.5 1.625 4 4 C3.9375 7.125 3.9375 7.125 3 10 C-0.68717438 12.45811625 -2.64345704 12.31118164 -7 12 C-10 10 -10 10 -10.3984375 8.125 C-10.39070313 7.42375 -10.38296875 6.7225 -10.375 6 C-10.38273437 5.29875 -10.39046875 4.5975 -10.3984375 3.875 C-9.32797532 -1.16246908 -4.02013416 -0.42317202 0 0 Z " fill="#F0F1E4" transform="translate(113,161)"/>
<path d="M0 0 C2.3125 1.5 2.3125 1.5 4 4 C4.51688443 6.90603916 4.33965896 8.99159211 4 12 C1 14 1 14 -2.5625 13.8125 C-6 13 -6 13 -8 10 C-8.54552912 3.89007383 -8.54552912 3.89007383 -6.8125 1.0625 C-4.29445572 -0.41359492 -2.87523324 -0.49089348 0 0 Z " fill="#F0ECF2" transform="translate(248,366)"/>
<path d="M0 0 C2.375 1.0625 2.375 1.0625 4 3 C4.4375 6.5625 4.4375 6.5625 4 10 C-0.06849409 12.71232939 -2.16476784 12.30699887 -7 12 C-9 10 -9 10 -9.3125 6.5625 C-9 3 -9 3 -7.875 1.0625 C-5.09808875 -0.51108304 -3.13770673 -0.38420899 0 0 Z " fill="#F8F8F3" transform="translate(112,241)"/>
<path d="M0 0 C0.61875 0.33 1.2375 0.66 1.875 1 C3.91018344 2.14193235 3.91018344 2.14193235 6 2 C6.33 1.34 6.66 0.68 7 0 C10.47000311 1.1566677 10.84701459 1.85726716 12.6875 4.875 C13.12449219 5.57367188 13.56148437 6.27234375 14.01171875 6.9921875 C15 9 15 9 15 12 C14.01 12 13.02 12 12 12 C12 12.66 12 13.32 12 14 C10.35 14.33 8.7 14.66 7 15 C6.16094435 13.87926138 5.32892169 12.75325453 4.5 11.625 C3.80390625 10.68527344 3.80390625 10.68527344 3.09375 9.7265625 C2 8 2 8 2 6 C1.01 6.33 0.02 6.66 -1 7 C-0.67 4.69 -0.34 2.38 0 0 Z " fill="#CA4754" transform="translate(214,100)"/>
<path d="M0 0 C7 0 7 0 10 2 C10.31845551 5.10494126 9.99424641 7.01726077 9 10 C9.59793673 12.35188447 10.25881795 14.68925595 11 17 C10.01 17 9.02 17 8 17 C7.34 14.69 6.68 12.38 6 10 C5.01 10 4.02 10 3 10 C3 12.31 3 14.62 3 17 C2.01 17 1.02 17 0 17 C0 11.39 0 5.78 0 0 Z " fill="#CF5C63" transform="translate(231,52)"/>
<path d="M0 0 C0.33 0 0.66 0 1 0 C1 26.4 1 52.8 1 80 C-4 78 -4 78 -7 76 C-5.8913081 73.50544322 -4.82145225 71.80567224 -2.95599365 69.77534485 C-0.54353632 66.35232707 -0.48541965 64.43945907 -0.45410156 60.28198242 C-0.44376389 59.62776306 -0.43342621 58.9735437 -0.42277527 58.29949951 C-0.393432 56.1512355 -0.39185003 54.00391708 -0.390625 51.85546875 C-0.37563745 50.36044019 -0.35890909 48.86542815 -0.34051514 47.37043762 C-0.29689314 43.44629134 -0.27685423 39.52236839 -0.26177979 35.59802246 C-0.2421899 31.5893028 -0.20022209 27.58082367 -0.16015625 23.57226562 C-0.08491011 15.71490678 -0.03458507 7.85764254 0 0 Z " fill="#979B49" transform="translate(55,171)"/>
<path d="M0 0 C0.33 0 0.66 0 1 0 C1.16225497 11.76109397 1.28660235 23.52192132 1.3626852 35.28390694 C1.39920332 40.74566327 1.44872835 46.2066534 1.52807617 51.66796875 C1.60418573 56.93944694 1.64600098 62.21018866 1.6641407 67.48217392 C1.67706588 69.49249745 1.70230679 71.50278106 1.7401104 73.51279068 C1.79100531 76.33118721 1.79792082 79.14654923 1.79467773 81.96533203 C1.81984467 82.79467758 1.8450116 83.62402313 1.87094116 84.47850037 C1.82704993 88.00860924 1.73095293 90.1423657 -0.61179924 92.89113998 C-2.54966736 94.56466675 -2.54966736 94.56466675 -6 97 C-6 93.7 -6 90.4 -6 87 C-4.35 87.66 -2.7 88.32 -1 89 C-0.67 59.63 -0.34 30.26 0 0 Z " fill="#818774" transform="translate(411,142)"/>
<path d="M0 0 C1.32 0 2.64 0 4 0 C4.83698386 2.45714547 5.66972424 4.91558857 6.5 7.375 C6.73847656 8.07367188 6.97695313 8.77234375 7.22265625 9.4921875 C9 14.7734375 9 14.7734375 9 17 C7.68 16.67 6.36 16.34 5 16 C5 15.01 5 14.02 5 13 C3.02 13 1.04 13 -1 13 C-1.33 14.32 -1.66 15.64 -2 17 C-2.99 17 -3.98 17 -5 17 C-1.92482916 5.47835991 -1.92482916 5.47835991 0 0 Z " fill="#76AF80" transform="translate(382,324)"/>
<path d="M0 0 C1.65 0 3.3 0 5 0 C6 1 6 1 6.25 4.75 C6.19034183 9.5141309 4.56968421 12.16870176 1.5 15.75 C-1.20826856 18.00689047 -3.81934445 18.11771566 -7.1875 18.0625 C-9.0746875 18.0315625 -9.0746875 18.0315625 -11 18 C-11.33 17.34 -11.66 16.68 -12 16 C-8.04 14.02 -4.08 12.04 0 10 C0 6.7 0 3.4 0 0 Z " fill="#4A7695" transform="translate(235,217)"/>
<path d="M0 0 C1.22589844 0.01353516 1.22589844 0.01353516 2.4765625 0.02734375 C3.41628906 0.04474609 3.41628906 0.04474609 4.375 0.0625 C4.705 0.7225 5.035 1.3825 5.375 2.0625 C4.67632812 2.32804688 3.97765625 2.59359375 3.2578125 2.8671875 C1.89269531 3.39699219 1.89269531 3.39699219 0.5 3.9375 C-0.85738281 4.45957031 -0.85738281 4.45957031 -2.2421875 4.9921875 C-4.74717007 5.94780895 -4.74717007 5.94780895 -6.625 8.0625 C-6.86787489 10.50262949 -6.86787489 10.50262949 -6.75 13.1875 C-6.73195312 14.09757813 -6.71390625 15.00765625 -6.6953125 15.9453125 C-6.67210937 16.64398438 -6.64890625 17.34265625 -6.625 18.0625 C-8.275 18.0625 -9.925 18.0625 -11.625 18.0625 C-13.25625565 14.7999887 -13.31351113 11.5745384 -12.625 8.0625 C-9.32877154 2.7479655 -6.33057901 -0.09043684 0 0 Z " fill="#4A7695" transform="translate(228.625,209.9375)"/>
<path d="M0 0 C5.625 -0.25 5.625 -0.25 9 2 C8.56744475 7.40694067 7.41778487 10.75366122 4 15 C3.34 15 2.68 15 2 15 C2 14.34 2 13.68 2 13 C1.195625 12.855625 0.39125 12.71125 -0.4375 12.5625 C-3 12 -3 12 -4 11 C-4.125 8.5 -4.125 8.5 -4 6 C-3.67 5.67 -3.34 5.34 -3 5 C-1.30858344 5.08963062 0.37959602 5.24577676 2.0625 5.4375 C3.44115234 5.59025391 3.44115234 5.59025391 4.84765625 5.74609375 C5.55792969 5.82988281 6.26820313 5.91367188 7 6 C6.67 5.01 6.34 4.02 6 3 C3.03 2.505 3.03 2.505 0 2 C0 1.34 0 0.68 0 0 Z " fill="#E1E6F3" transform="translate(351,168)"/>
<path d="M0 0 C2.875 0.875 2.875 0.875 4.875 2.875 C5 6 5 6 4.875 8.875 C1.875 9.875 1.875 9.875 -1.3125 8.4375 C-2.240625 7.921875 -3.16875 7.40625 -4.125 6.875 C-4.125 8.195 -4.125 9.515 -4.125 10.875 C-2.475 11.205 -0.825 11.535 0.875 11.875 C0.875 12.535 0.875 13.195 0.875 13.875 C-1.9375 14.125 -1.9375 14.125 -5.125 13.875 C-7.0625 12.25 -7.0625 12.25 -8.125 9.875 C-8.05030315 6.28955141 -7.48018507 4.38804511 -5.4375 1.4375 C-3.125 -0.125 -3.125 -0.125 0 0 Z " fill="#E6EAF5" transform="translate(389.125,187.125)"/>
<path d="M0 0 C2.875 0.9375 2.875 0.9375 4.875 3.9375 C4.5 7.125 4.5 7.125 3.875 9.9375 C0.50037285 9.39026317 -1.20735 8.8826 -4.125 6.9375 C-4.455 8.5875 -4.785 10.2375 -5.125 11.9375 C-3.145 11.9375 -1.165 11.9375 0.875 11.9375 C0.875 12.5975 0.875 13.2575 0.875 13.9375 C-4.47465035 14.29414336 -4.47465035 14.29414336 -7.0625 12.875 C-8.81452797 9.68012547 -8.02627546 7.36234676 -7.125 3.9375 C-4.87862929 0.60954339 -4.05585379 -0.08111708 0 0 Z " fill="#E5E9F4" transform="translate(309.125,141.0625)"/>
<path d="M0 0 C3.8384611 1.55366282 5.75795462 4.42374773 7.625 8.0625 C7.625 9.0525 7.625 10.0425 7.625 11.0625 C6.635 11.0625 5.645 11.0625 4.625 11.0625 C4.295 12.0525 3.965 13.0425 3.625 14.0625 C1.62545254 14.10504356 -0.37541636 14.10330783 -2.375 14.0625 C-3.375 13.0625 -3.375 13.0625 -3.6875 10.6875 C-3.375 8.0625 -3.375 8.0625 -1.375 6.375 C-0.715 5.941875 -0.055 5.50875 0.625 5.0625 C0.625 4.4025 0.625 3.7425 0.625 3.0625 C-1.35036745 3.41036708 -1.35036745 3.41036708 -3.375 4.0625 C-3.705 4.7225 -4.035 5.3825 -4.375 6.0625 C-5.035 6.0625 -5.695 6.0625 -6.375 6.0625 C-6.0625 4.1875 -6.0625 4.1875 -5.375 2.0625 C-2.375 0.0625 -2.375 0.0625 0 0 Z " fill="#E7E0E9" transform="translate(273.375,349.9375)"/>
<path d="M0 0 C1.875 1.375 1.875 1.375 3 3 C3 3.66 3 4.32 3 5 C0.69 6.32 -1.62 7.64 -4 9 C-3.67 9.66 -3.34 10.32 -3 11 C-1.35 11 0.3 11 2 11 C2 10.01 2 9.02 2 8 C2.66 8 3.32 8 4 8 C3.6875 9.875 3.6875 9.875 3 12 C0 14 0 14 -2.4375 13.9375 C-5.8856982 12.67596407 -7.09446105 11.10532273 -9 8 C-9.48921715 5.0646971 -9.44442256 3.71601412 -7.875 1.1875 C-5.12844028 -0.55198782 -3.18153026 -0.39769128 0 0 Z " fill="#F5E2E0" transform="translate(181,126)"/>
<path d="M0 0 C2.58203125 0.3984375 2.58203125 0.3984375 4.3828125 2.296875 C5.13111328 3.52277344 5.13111328 3.52277344 5.89453125 4.7734375 C6.40628906 5.58554688 6.91804687 6.39765625 7.4453125 7.234375 C8.58203125 9.3984375 8.58203125 9.3984375 8.58203125 11.3984375 C7.59203125 11.3984375 6.60203125 11.3984375 5.58203125 11.3984375 C4.59203125 12.8834375 4.59203125 12.8834375 3.58203125 14.3984375 C1.08203125 14.7109375 1.08203125 14.7109375 -1.41796875 14.3984375 C-2.07796875 13.7384375 -2.73796875 13.0784375 -3.41796875 12.3984375 C-3.09303952 9.04083548 -1.78448425 7.66206102 0.58203125 5.3984375 C0.58203125 4.7384375 0.58203125 4.0784375 0.58203125 3.3984375 C-1.3933362 3.74630458 -1.3933362 3.74630458 -3.41796875 4.3984375 C-3.74796875 5.0584375 -4.07796875 5.7184375 -4.41796875 6.3984375 C-5.07796875 6.3984375 -5.73796875 6.3984375 -6.41796875 6.3984375 C-3.71793375 0.61264821 -3.71793375 0.61264821 0 0 Z " fill="#F7E8E6" transform="translate(189.41796875,118.6015625)"/>
<path d="M0 0 C1.9375 1.125 1.9375 1.125 3 3 C2.6875 6.1875 2.6875 6.1875 2 9 C-1.55780196 8.39009109 -4.6828589 7.4216319 -8 6 C-7.37466625 8.52363988 -7.37466625 8.52363988 -6 11 C-3.45224694 11.89386164 -3.45224694 11.89386164 -1 12 C-1.33 12.66 -1.66 13.32 -2 14 C-4.875 13.6875 -4.875 13.6875 -8 13 C-10 10 -10 10 -9.8125 6.5 C-9 3 -9 3 -7.8125 1.0625 C-5.08912093 -0.5339636 -3.09046979 -0.38630872 0 0 Z " fill="#F7EAD6" transform="translate(85,291)"/>
<path d="M0 0 C2 2 2 2 2.125 5.625 C2.08375 6.73875 2.0425 7.8525 2 9 C1.01 9.495 1.01 9.495 0 10 C-1.9453125 9.22265625 -1.9453125 9.22265625 -4.125 8.0625 C-4.84945312 7.68222656 -5.57390625 7.30195313 -6.3203125 6.91015625 C-6.87460938 6.60980469 -7.42890625 6.30945313 -8 6 C-7.37466625 8.52363988 -7.37466625 8.52363988 -6 11 C-3.45224694 11.89386164 -3.45224694 11.89386164 -1 12 C-1.33 12.66 -1.66 13.32 -2 14 C-7.75 13.25 -7.75 13.25 -10 11 C-10.43244601 7.10798594 -10.57846465 4.86769698 -8.375 1.5625 C-5.34990088 -0.42769679 -3.55600891 -0.46382725 0 0 Z " fill="#F7ECDA" transform="translate(116,308)"/>
<path d="M0 0 C2.5625 0.1875 2.5625 0.1875 4.5625 2.1875 C4.6875 5.3125 4.6875 5.3125 4.5625 8.1875 C5.5525 7.8575 6.5425 7.5275 7.5625 7.1875 C7.2325 5.2075 6.9025 3.2275 6.5625 1.1875 C7.5525 1.1875 8.5425 1.1875 9.5625 1.1875 C10.1875 4.5625 10.1875 4.5625 10.5625 8.1875 C8.5625 10.1875 8.5625 10.1875 5.7421875 10.3828125 C4.65164063 10.35960937 3.56109375 10.33640625 2.4375 10.3125 C1.34179688 10.29445312 0.24609375 10.27640625 -0.8828125 10.2578125 C-1.72585938 10.23460937 -2.56890625 10.21140625 -3.4375 10.1875 C-3.46439216 8.70843108 -3.48384621 7.22922517 -3.5 5.75 C-3.51160156 4.92628906 -3.52320313 4.10257813 -3.53515625 3.25390625 C-3.39211585 0.22717144 -3.02891307 0.23299331 0 0 Z " fill="#E2ECE1" transform="translate(350.4375,235.8125)"/>
<path d="M0 0 C0 0.99 0 1.98 0 3 C-1.65 3.33 -3.3 3.66 -5 4 C-5 4.66 -5 5.32 -5 6 C-4.01 6.5775 -3.02 7.155 -2 7.75 C1 10 1 10 1.5625 13.0625 C1 16 1 16 -0.125 17.875 C-2.78034983 19.4682099 -4.96789518 19.20214032 -8 19 C-8.33 17.68 -8.66 16.36 -9 15 C-7.02 15 -5.04 15 -3 15 C-3 14.01 -3 13.02 -3 12 C-3.804375 11.566875 -4.60875 11.13375 -5.4375 10.6875 C-8 9 -8 9 -9 6 C-9 3 -9 3 -7.9375 1.125 C-5.24099753 -0.44071111 -3.05869541 -0.20391303 0 0 Z " fill="#9D7EA4" transform="translate(228,410)"/>
<path d="M0 0 C0 3.3 0 6.6 0 10 C1.32 9.34 2.64 8.68 4 8 C3.67 5.69 3.34 3.38 3 1 C3.99 1.33 4.98 1.66 6 2 C6.35915493 8.34507042 6.35915493 8.34507042 4.9375 10.9375 C1.88023824 12.6140629 -0.5906288 12.36528977 -4 12 C-5.9375 10.875 -5.9375 10.875 -7 9 C-7.40186757 5.78505943 -7.57455806 3.8618371 -5.75 1.125 C-4 0 -4 0 0 0 Z " fill="#F6F7F0" transform="translate(110,202)"/>
<path d="M0 0 C2.5625 0.3125 2.5625 0.3125 4.375 1.6875 C5.5625 3.3125 5.5625 3.3125 5.5625 5.3125 C4.5725 5.3125 3.5825 5.3125 2.5625 5.3125 C2.5625 4.6525 2.5625 3.9925 2.5625 3.3125 C0.9125 3.3125 -0.7375 3.3125 -2.4375 3.3125 C-2.4375 4.6325 -2.4375 5.9525 -2.4375 7.3125 C-0.7359375 7.7765625 -0.7359375 7.7765625 1 8.25 C4.5625 9.3125 4.5625 9.3125 5.5625 10.3125 C5.27519945 12.65194736 4.94313221 14.9864143 4.5625 17.3125 C-2.0625 18.5625 -2.0625 18.5625 -5.4375 16.3125 C-5.4375 15.3225 -5.4375 14.3325 -5.4375 13.3125 C-4.86 13.663125 -4.2825 14.01375 -3.6875 14.375 C-1.07948224 15.46167407 -0.04332371 15.24315133 2.5625 14.3125 C2.2325 13.3225 1.9025 12.3325 1.5625 11.3125 C-0.08301962 10.59522222 -1.75172289 9.92924772 -3.4375 9.3125 C-4.0975 8.6525 -4.7575 7.9925 -5.4375 7.3125 C-5.03038225 3.2413225 -4.47068536 0.57316479 0 0 Z " fill="#E67F37" transform="translate(196.4375,260.6875)"/>
<path d="M0 0 C1.2375 0.1546875 1.2375 0.1546875 2.5 0.3125 C4.82579101 3.80118651 4.91865457 5.20968519 4.5 9.3125 C3 11.6875 3 11.6875 1.5 13.3125 C-0.375 13 -0.375 13 -2.5 12.3125 C-4.94897847 8.63903229 -4.81537716 6.64893601 -4.5 2.3125 C-2.5 0.3125 -2.5 0.3125 0 0 Z " fill="#FCF7F2" transform="translate(228.5,263.6875)"/>
<path d="M0 0 C0.99 0.33 1.98 0.66 3 1 C3.66 0.67 4.32 0.34 5 0 C8.0625 -0.125 8.0625 -0.125 11 0 C12 1 12 1 12.09765625 4.59765625 C12.0909822 6.08596867 12.07902183 7.57426432 12.0625 9.0625 C12.05798828 9.82111328 12.05347656 10.57972656 12.04882812 11.36132812 C12.0370068 13.24091871 12.01907078 15.12046899 12 17 C11.01 17 10.02 17 9 17 C9 12.05 9 7.1 9 2 C7.02 2.66 5.04 3.32 3 4 C2.67 7.96 2.34 11.92 2 16 C1.34 16 0.68 16 0 16 C0 10.72 0 5.44 0 0 Z " fill="#E88945" transform="translate(238,262)"/>
<path d="M0 0 C1.65322266 0.01740234 1.65322266 0.01740234 3.33984375 0.03515625 C4.99693359 0.04869141 4.99693359 0.04869141 6.6875 0.0625 C7.54214844 0.07410156 8.39679688 0.08570313 9.27734375 0.09765625 C9.30423591 1.57672517 9.32368996 3.05593108 9.33984375 4.53515625 C9.35144531 5.35886719 9.36304687 6.18257812 9.375 7.03125 C9.27734375 9.09765625 9.27734375 9.09765625 8.27734375 10.09765625 C6.6111726 10.13829457 4.9434628 10.14037725 3.27734375 10.09765625 C1.51271692 7.0095593 1.27734375 5.86453489 1.27734375 2.09765625 C0.28734375 2.42765625 -0.70265625 2.75765625 -1.72265625 3.09765625 C-1.39265625 5.07765625 -1.06265625 7.05765625 -0.72265625 9.09765625 C-1.71265625 9.59265625 -1.71265625 9.59265625 -2.72265625 10.09765625 C-4.21372082 7.11552712 -3.84207092 4.38155967 -3.72265625 1.09765625 C-2.72265625 0.09765625 -2.72265625 0.09765625 0 0 Z " fill="#F1F2E5" transform="translate(106.72265625,134.90234375)"/>
<path d="M0 0 C2.64 0 5.28 0 8 0 C8 0.66 8 1.32 8 2 C6.35 2 4.7 2 3 2 C3 3.32 3 4.64 3 6 C4.65 6 6.3 6 8 6 C8 6.99 8 7.98 8 9 C6.35 9 4.7 9 3 9 C3 10.32 3 11.64 3 13 C4.98 13 6.96 13 9 13 C9 13.99 9 14.98 9 16 C6.03 16 3.06 16 0 16 C0 10.72 0 5.44 0 0 Z " fill="#D9A040" transform="translate(66,317)"/>
<path d="M0 0 C3.3 0 6.6 0 10 0 C9.01 1.485 9.01 1.485 8 3 C8.020625 3.825 8.04125 4.65 8.0625 5.5 C8 8 8 8 6.625 9.8125 C5 11 5 11 3 11 C3 10.34 3 9.68 3 9 C1.68 9 0.36 9 -1 9 C-2.16552619 4.80410573 -2.08954032 4.17908064 0 0 Z " fill="#E98D4A" transform="translate(256,261)"/>
<path d="M0 0 C2.97 0 5.94 0 9 0 C9 0.99 9 1.98 9 3 C8.01 3 7.02 3 6 3 C6 6.63 6 10.26 6 14 C6.99 14 7.98 14 9 14 C9 14.66 9 15.32 9 16 C6.03 16 3.06 16 0 16 C0 15.01 0 14.02 0 13 C0.99 13 1.98 13 3 13 C3 9.7 3 6.4 3 3 C2.01 3 1.02 3 0 3 C0 2.01 0 1.02 0 0 Z " fill="#6B8DC7" transform="translate(384,147)"/>
<path d="M0 0 C1.65322266 0.01740234 1.65322266 0.01740234 3.33984375 0.03515625 C4.99693359 0.04869141 4.99693359 0.04869141 6.6875 0.0625 C7.54214844 0.07410156 8.39679688 0.08570313 9.27734375 0.09765625 C9.27734375 0.75765625 9.27734375 1.41765625 9.27734375 2.09765625 C5.97734375 2.42765625 2.67734375 2.75765625 -0.72265625 3.09765625 C-0.72265625 4.41765625 -0.72265625 5.73765625 -0.72265625 7.09765625 C2.57734375 7.42765625 5.87734375 7.75765625 9.27734375 8.09765625 C9.27734375 9.08765625 9.27734375 10.07765625 9.27734375 11.09765625 C4.98734375 11.09765625 0.69734375 11.09765625 -3.72265625 11.09765625 C-3.8203125 3.3828125 -3.8203125 3.3828125 -3.72265625 1.09765625 C-2.72265625 0.09765625 -2.72265625 0.09765625 0 0 Z " fill="#EFF0E2" transform="translate(106.72265625,227.90234375)"/>
<path d="M0 0 C0.66 0 1.32 0 2 0 C2 0.66 2 1.32 2 2 C3.65 2.33 5.3 2.66 7 3 C8.00821159 5.68856424 8.22736824 7.41703215 7.17578125 10.11328125 C6.16604698 12.10794931 5.11893353 14.0646772 4 16 C3.01 15.67 2.02 15.34 1 15 C1.474375 14.113125 1.94875 13.22625 2.4375 12.3125 C3.79737149 9.42957244 4.54060386 7.12389377 5 4 C0.07971199 5.36674667 -1.34487447 7.78842157 -4 12 C-4.66 12 -5.32 12 -6 12 C-4.68448876 7.39571066 -2.90803514 3.81679612 0 0 Z " fill="#F7EDDA" transform="translate(170,339)"/>
<path d="M0 0 C0.66 0 1.32 0 2 0 C2 0.66 2 1.32 2 2 C2.804375 1.979375 3.60875 1.95875 4.4375 1.9375 C7 2 7 2 8 3 C8.66476796 8.5840509 6.91814355 11.44040071 4 16 C3.01 16 2.02 16 1 16 C2.12451727 13.0280615 3.22293791 10.66559313 5 8 C5 7.01 5 6.02 5 5 C3.35 4.67 1.7 4.34 0 4 C-0.433125 5.1446875 -0.433125 5.1446875 -0.875 6.3125 C-2 9 -2 9 -4 12 C-4.66 12 -5.32 12 -6 12 C-4.68448876 7.39571066 -2.90803514 3.81679612 0 0 Z " fill="#E9EDF6" transform="translate(284,128)"/>
<path d="M0 0 C0.66 0 1.32 0 2 0 C2 0.66 2 1.32 2 2 C2.78375 1.95875 3.5675 1.9175 4.375 1.875 C7 2 7 2 9 4 C8.77414826 8.96873824 7.04489479 12.12467936 4 16 C3.34 16 2.68 16 2 16 C3.33333333 12 4.66666667 8 6 4 C3.62102997 3.95489639 3.62102997 3.95489639 1 5 C-0.67849824 7.2308475 -1.75999263 9.47405906 -3 12 C-3.66 12 -4.32 12 -5 12 C-4.42365861 7.24518354 -2.44931479 4.02951788 0 0 Z " fill="#F9F1E2" transform="translate(91,296)"/>
<path d="M0 0 C0.33 1.65 0.66 3.3 1 5 C-2.8503105 7.56687367 -4.58569763 6.83288724 -9 6 C-9.6875 4.1875 -9.6875 4.1875 -10 2 C-7.63939534 -2.27859594 -4.19472714 -0.87060375 0 0 Z " fill="#A8B164" transform="translate(114,164)"/>
<path d="M0 0 C3 6.5 3 6.5 3 11 C-1.8274799 9.58707905 -5.7162359 7.57025846 -10 5 C-3.63636364 0 -3.63636364 0 0 0 Z " fill="#6F6A62" transform="translate(317,79)"/>
<path d="M0 0 C0.66 0 1.32 0 2 0 C1.67 2.64 1.34 5.28 1 8 C1.99 8 2.98 8 4 8 C4.28875 7.05125 4.5775 6.1025 4.875 5.125 C6 2 6 2 8 0 C10.125 0.375 10.125 0.375 12 1 C13.125 7.75 13.125 7.75 12 10 C11.34 10 10.68 10 10 10 C10.33 7.69 10.66 5.38 11 3 C7.7014861 3.72268235 7.7014861 3.72268235 6.3125 7.0625 C5.879375 8.031875 5.44625 9.00125 5 10 C0.125 9.125 0.125 9.125 -1 8 C-1.125 4.5 -1.125 4.5 -1 1 C-0.67 0.67 -0.34 0.34 0 0 Z " fill="#EDF3EC" transform="translate(348,272)"/>
<path d="M0 0 C0 0.66 0 1.32 0 2 C-1.98 2.66 -3.96 3.32 -6 4 C-6 6.64 -6 9.28 -6 12 C-4.02 12.66 -2.04 13.32 0 14 C0 14.66 0 15.32 0 16 C-6.3782235 16.48137536 -6.3782235 16.48137536 -8.9375 14.5 C-10.45346205 10.93303046 -10.55539679 7.81737513 -10 4 C-7.91249108 -0.91178569 -4.92071233 -0.37137452 0 0 Z " fill="#A1AB58" transform="translate(77,136)"/>
<path d="M0 0 C4.54805635 -0.17835515 7.8794254 0.00214565 12 2 C9.20803989 5.28465896 5.76803183 7.01321958 2 9 C1.34 9 0.68 9 0 9 C0 6.03 0 3.06 0 0 Z " fill="#6C6864" transform="translate(133,85)"/>
<path d="M0 0 C1.09054688 0.02320313 2.18109375 0.04640625 3.3046875 0.0703125 C4.40039062 0.08835938 5.49609375 0.10640625 6.625 0.125 C7.46804687 0.14820313 8.31109375 0.17140625 9.1796875 0.1953125 C9.1796875 0.8553125 9.1796875 1.5153125 9.1796875 2.1953125 C5.8796875 2.5253125 2.5796875 2.8553125 -0.8203125 3.1953125 C-0.8203125 4.5153125 -0.8203125 5.8353125 -0.8203125 7.1953125 C2.4796875 7.5253125 5.7796875 7.8553125 9.1796875 8.1953125 C9.1796875 8.8553125 9.1796875 9.5153125 9.1796875 10.1953125 C4.8896875 10.1953125 0.5996875 10.1953125 -3.8203125 10.1953125 C-4.796875 4.140625 -4.796875 4.140625 -4.8203125 2.1953125 C-2.8203125 0.1953125 -2.8203125 0.1953125 0 0 Z " fill="#F9FAF6" transform="translate(106.8203125,147.8046875)"/>
<path d="M0 0 C0 0.66 0 1.32 0 2 C-1.2065625 2.433125 -1.2065625 2.433125 -2.4375 2.875 C-5.1326468 3.73262568 -5.1326468 3.73262568 -6 6 C-5.04287109 5.98259766 -5.04287109 5.98259766 -4.06640625 5.96484375 C-2.82697266 5.95130859 -2.82697266 5.95130859 -1.5625 5.9375 C-0.73878906 5.92589844 0.08492187 5.91429688 0.93359375 5.90234375 C3 6 3 6 4 7 C4.3125 9.375 4.3125 9.375 4 12 C2.25 13.8125 2.25 13.8125 0 15 C-1.32 15 -2.64 15 -4 15 C-4 14.34 -4 13.68 -4 13 C-2.02 12.67 -0.04 12.34 2 12 C2 10.68 2 9.36 2 8 C0.72125 8.20625 -0.5575 8.4125 -1.875 8.625 C-4.0546875 8.9765625 -4.0546875 8.9765625 -6 9 C-6.66 8.34 -7.32 7.68 -8 7 C-7.8125 4.5 -7.8125 4.5 -7 2 C-4 0 -4 0 0 0 Z " fill="#F5E0DD" transform="translate(212,107)"/>
<path d="M0 0 C2.625 0.25 2.625 0.25 4.4375 1.625 C5.625 3.25 5.625 3.25 5.625 5.25 C4.965 5.25 4.305 5.25 3.625 5.25 C3.295 4.59 2.965 3.93 2.625 3.25 C0.60036745 2.59786708 0.60036745 2.59786708 -1.375 2.25 C-0.900625 2.971875 -0.42625 3.69375 0.0625 4.4375 C1.58435593 7.17684067 2.37277092 9.13917474 2.625 12.25 C1.965 12.91 1.305 13.57 0.625 14.25 C-4.82954545 13.79545455 -4.82954545 13.79545455 -7.375 11.25 C-7.375 10.26 -7.375 9.27 -7.375 8.25 C-6.715 8.25 -6.055 8.25 -5.375 8.25 C-4.385 9.735 -4.385 9.735 -3.375 11.25 C-2.385 11.58 -1.395 11.91 -0.375 12.25 C-1.46284968 9.00016865 -1.46284968 9.00016865 -3.375 6.25 C-3.5 3.75 -3.5 3.75 -3.375 1.25 C-2.375 0.25 -2.375 0.25 0 0 Z " fill="#E9EDF6" transform="translate(319.375,147.75)"/>
<path d="M0 0 C0 2.64 0 5.28 0 8 C0.66 8.33 1.32 8.66 2 9 C0.04098546 8.88617347 -1.9172338 8.75858875 -3.875 8.625 C-4.96554687 8.55539062 -6.05609375 8.48578125 -7.1796875 8.4140625 C-10 8 -10 8 -12 6 C-10.37829621 4.99466333 -8.75252763 3.99588093 -7.125 3 C-5.76761719 2.1646875 -5.76761719 2.1646875 -4.3828125 1.3125 C-2 0 -2 0 0 0 Z " fill="#6E6C62" transform="translate(327,384)"/>
<path d="M0 0 C2.4375 0.25 2.4375 0.25 5 1 C7.1519437 4.22791555 7.20086443 5.28400809 7 9 C4.6875 9.6875 4.6875 9.6875 2 10 C0.1875 8.9375 0.1875 8.9375 -1 7 C-1.25 3.875 -1.25 3.875 -1 1 C-0.67 0.67 -0.34 0.34 0 0 Z " fill="#9B7CA3" transform="translate(243,368)"/>
<path d="M0 0 C2.4375 1.6875 2.4375 1.6875 4 4 C4.25 6.75 4.25 6.75 4 9 C2.02 9.99 2.02 9.99 0 11 C0.33 8.69 0.66 6.38 1 4 C-1.64 4 -4.28 4 -7 4 C-7.15149298 7.62885324 -7.15149298 7.62885324 -6 11 C-6.99 11 -7.98 11 -9 11 C-10.39935013 8.20129973 -10.25265405 6.09501208 -10 3 C-7.71982624 -1.02383605 -4.21281932 -0.51736378 0 0 Z " fill="#EEF3ED" transform="translate(357,298)"/>
<path d="M0 0 C1.50433594 0.01353516 1.50433594 0.01353516 3.0390625 0.02734375 C3.80992188 0.03894531 4.58078125 0.05054688 5.375 0.0625 C5.375 0.7225 5.375 1.3825 5.375 2.0625 C2.075 2.3925 -1.225 2.7225 -4.625 3.0625 C-4.295 4.7125 -3.965 6.3625 -3.625 8.0625 C-0.655 8.3925 2.315 8.7225 5.375 9.0625 C5.375 9.7225 5.375 10.3825 5.375 11.0625 C1.085 11.0625 -3.205 11.0625 -7.625 11.0625 C-7.625 7.72916667 -7.625 4.39583333 -7.625 1.0625 C-4.98041621 -0.25979189 -2.94738699 -0.03427194 0 0 Z " fill="#F6F6EF" transform="translate(110.625,188.9375)"/>
<path d="M0 0 C0 0.66 0 1.32 0 2 C-1.98 2.66 -3.96 3.32 -6 4 C-5.42547254 7.93075644 -5.42547254 7.93075644 -3 11 C-0.90708843 10.91428339 -0.90708843 10.91428339 1 10 C1.33 9.01 1.66 8.02 2 7 C2.66 7 3.32 7 4 7 C3.6875 9.375 3.6875 9.375 3 12 C0 14 0 14 -3 13.9375 C-6 13 -6 13 -7.875 10.75 C-9.07007711 7.8287004 -9.49138044 6.1120761 -9 3 C-6.71619742 -0.67945972 -4.04424788 -0.26961653 0 0 Z " fill="#F6E4E1" transform="translate(236,94)"/>
<path d="M0 0 C0.78375 0.04125 1.5675 0.0825 2.375 0.125 C0.725 1.775 -0.925 3.425 -2.625 5.125 C-1.66787109 5.10759766 -1.66787109 5.10759766 -0.69140625 5.08984375 C0.54802734 5.07630859 0.54802734 5.07630859 1.8125 5.0625 C2.63621094 5.05089844 3.45992187 5.03929687 4.30859375 5.02734375 C6.375 5.125 6.375 5.125 7.375 6.125 C7.6875 8.5 7.6875 8.5 7.375 11.125 C5.625 12.9375 5.625 12.9375 3.375 14.125 C2.055 14.125 0.735 14.125 -0.625 14.125 C-0.625 13.465 -0.625 12.805 -0.625 12.125 C1.355 11.795 3.335 11.465 5.375 11.125 C5.045 10.135 4.715 9.145 4.375 8.125 C3.075625 8.145625 1.77625 8.16625 0.4375 8.1875 C-0.91665633 8.20899454 -2.27256083 8.19648199 -3.625 8.125 C-4.625 7.125 -4.625 7.125 -4.8125 4.6875 C-4.54653904 1.05270021 -3.63803315 0.17323967 0 0 Z " fill="#F3F0F4" transform="translate(233.625,372.875)"/>
<path d="M0 0 C3.5625 0.1875 3.5625 0.1875 5.5625 2.1875 C5.3125 4.25 5.3125 4.25 4.5625 6.1875 C1.79999964 7.56875018 -0.38481099 7.37829306 -3.4375 7.1875 C-4.0975 6.5275 -4.7575 5.8675 -5.4375 5.1875 C-4.79267676 0.93166659 -4.45579755 0.2430435 0 0 Z " fill="#A4AE5D" transform="translate(109.4375,243.8125)"/>
<path d="M0 0 C0.66 0 1.32 0 2 0 C1.67 3.3 1.34 6.6 1 10 C2.98 8.02 4.96 6.04 7 4 C7.99 4.33 8.98 4.66 10 5 C8.33333333 6.66666667 6.66666667 8.33333333 5 10 C4.319375 10.78375 3.63875 11.5675 2.9375 12.375 C2.298125 12.91125 1.65875 13.4475 1 14 C-1.12109375 13.6015625 -1.12109375 13.6015625 -3 13 C-2.69240822 11.02006459 -2.3787932 9.04106401 -2.0625 7.0625 C-1.88847656 5.96035156 -1.71445312 4.85820312 -1.53515625 3.72265625 C-1 1 -1 1 0 0 Z " fill="#E9EDF6" transform="translate(295,134)"/>
<path d="M0 0 C0.33 0.66 0.66 1.32 1 2 C-0.98 2.66 -2.96 3.32 -5 4 C-4.67 5.98 -4.34 7.96 -4 10 C-2.35 10.33 -0.7 10.66 1 11 C1.66 9.68 2.32 8.36 3 7 C3.66 7 4.32 7 5 7 C4.6875 9.375 4.6875 9.375 4 12 C0.75846834 14.1610211 -0.23692901 14.64247553 -4 14 C-6.87282369 11.36010796 -7.89439729 9.75430505 -8.4375 5.875 C-8 3 -8 3 -6.8125 1.125 C-4.43963721 -0.34781139 -2.74086056 -0.22223194 0 0 Z " fill="#F2EFF4" transform="translate(260,359)"/>
<path d="M0 0 C2.33944736 0.28730055 4.6739143 0.61936779 7 1 C7.33 2.32 7.66 3.64 8 5 C5.69 4.01 3.38 3.02 1 2 C1.680625 2.886875 2.36125 3.77375 3.0625 4.6875 C5 8 5 8 4.75 10.875 C4.5025 11.57625 4.255 12.2775 4 13 C2.3125 13.75 2.3125 13.75 0 14 C-2.75 12.1875 -2.75 12.1875 -5 10 C-5 9.34 -5 8.68 -5 8 C-4.34 8 -3.68 8 -3 8 C-2.01 9.485 -2.01 9.485 -1 11 C-0.01 11 0.98 11 2 11 C1.5359375 9.9171875 1.5359375 9.9171875 1.0625 8.8125 C0.06915957 6.18306945 -0.61377696 3.78080588 -1 1 C-0.67 0.67 -0.34 0.34 0 0 Z " fill="#F9F2E6" transform="translate(154,332)"/>
<path d="M0 0 C1.65 0.33 3.3 0.66 5 1 C4.125 7.875 4.125 7.875 3 9 C1.33382885 9.04063832 -0.33388095 9.042721 -2 9 C-2.6875 6.75 -2.6875 6.75 -3 4 C-1.5625 1.6875 -1.5625 1.6875 0 0 Z " fill="#D89C39" transform="translate(131,321)"/>
<path d="M0 0 C0.66 0 1.32 0 2 0 C1.67 3.3 1.34 6.6 1 10 C1.94875 9.01 2.8975 8.02 3.875 7 C5.4921875 5.3125 5.4921875 5.3125 7 4 C7.66 4 8.32 4 9 4 C7.42586583 8.09274885 4.45897623 11.35956013 1 14 C0.01 14 -0.98 14 -2 14 C-2.1799928 8.78020872 -1.97094808 4.92737019 0 0 Z " fill="#F0F2F9" transform="translate(375,180)"/>
<path d="M0 0 C3.63 1.98 7.26 3.96 11 6 C10.01 6.99 9.02 7.98 8 9 C7.484375 9.556875 6.96875 10.11375 6.4375 10.6875 C5 12 5 12 3 12 C2.49440092 10.56445975 1.9957251 9.1264798 1.5 7.6875 C1.2215625 6.88699219 0.943125 6.08648437 0.65625 5.26171875 C0 3 0 3 0 0 Z " fill="#716C60" transform="translate(143,388)"/>
<path d="M0 0 C4.29 1.32 8.58 2.64 13 4 C12.67 5.32 12.34 6.64 12 8 C10.0390625 9.046875 10.0390625 9.046875 7.625 9.75 C6.83351563 9.99234375 6.04203125 10.2346875 5.2265625 10.484375 C3 11 3 11 0 11 C0.33 10.01 0.66 9.02 1 8 C4.5625 6.8125 4.5625 6.8125 8 6 C5.36 5.01 2.72 4.02 0 3 C0 2.01 0 1.02 0 0 Z " fill="#F4F4EB" transform="translate(103,215)"/>
<path d="M0 0 C0.66 0.66 1.32 1.32 2 2 C1.34 2.66 0.68 3.32 0 4 C0.3185177 6.10820797 0.3185177 6.10820797 1 8 C3.31 8 5.62 8 8 8 C8.67958603 5.60280568 8.67958603 5.60280568 9 3 C8.34 2.34 7.68 1.68 7 1 C7.99 1 8.98 1 10 1 C11 2 11 2 11.3125 5.375 C11 9 11 9 9.4375 11 C5.97697331 12.41970326 3.58483216 11.86301515 0 11 C-2 9 -2 9 -2.25 5.5 C-2 2 -2 2 0 0 Z " fill="#EFF0E1" transform="translate(105,255)"/>
<path d="M0 0 C-1.32 0.33 -2.64 0.66 -4 1 C-4 1.66 -4 2.32 -4 3 C-2.02 3 -0.04 3 2 3 C2.33 4.32 2.66 5.64 3 7 C-0.3 7 -3.6 7 -7 7 C-7.66 8.32 -8.32 9.64 -9 11 C-10.03321725 7.71249056 -10.20141923 6.42202124 -8.6875 3.25 C-6.04827691 -0.26896411 -4.20801595 -0.11073726 0 0 Z " fill="#6F90C8" transform="translate(355,167)"/>
<path d="M0 0 C0.33 0 0.66 0 1 0 C1 1.65 1 3.3 1 5 C2.32 5 3.64 5 5 5 C5 5.66 5 6.32 5 7 C3.68 7 2.36 7 1 7 C1.33 10.63 1.66 14.26 2 18 C2.99 18.33 3.98 18.66 5 19 C5 19.66 5 20.32 5 21 C0.125 20.125 0.125 20.125 -1 19 C-1.0983721 17.66956375 -1.13078592 16.33406656 -1.1328125 15 C-1.13410156 14.195625 -1.13539063 13.39125 -1.13671875 12.5625 C-1.13285156 11.716875 -1.12898437 10.87125 -1.125 10 C-1.12886719 9.154375 -1.13273438 8.30875 -1.13671875 7.4375 C-1.13542969 6.633125 -1.13414062 5.82875 -1.1328125 5 C-1.13168457 4.2575 -1.13055664 3.515 -1.12939453 2.75 C-1 1 -1 1 0 0 Z " fill="#E4762B" transform="translate(206,258)"/>
<path d="M0 0 C0 2 0 4 0 6 C-0.99 6 -1.98 6 -3 6 C-4.32 8.97 -5.64 11.94 -7 15 C-6.34 15 -5.68 15 -5 15 C-5 15.66 -5 16.32 -5 17 C-7.475 16.01 -7.475 16.01 -10 15 C-9.4294891 11.00642372 -8.07130449 8.42215525 -6 5 C-6 4.01 -6 3.02 -6 2 C-2.25 0 -2.25 0 0 0 Z " fill="#E6EBF5" transform="translate(369,171)"/>
<path d="M0 0 C2.125 0.375 2.125 0.375 4 1 C4.6875 2.75 4.6875 2.75 5 5 C3.5625 7.25 3.5625 7.25 2 9 C0.35 8.67 -1.3 8.34 -3 8 C-2.25 2.25 -2.25 2.25 0 0 Z " fill="#698CC6" transform="translate(341,163)"/>
<path d="M0 0 C0.144375 0.61875 0.28875 1.2375 0.4375 1.875 C0.93152225 4.03258322 0.93152225 4.03258322 2 6 C0.68 6 -0.64 6 -2 6 C-3.80230168 9.82989106 -4.19622241 12.78121808 -4 17 C-5.32 16.34 -6.64 15.68 -8 15 C-7.56540502 11.95783513 -7.00953604 10.01540438 -5.375 7.375 C-4.92125 6.59125 -4.4675 5.8075 -4 5 C-4.33 4.01 -4.66 3.02 -5 2 C-3.35 1.34 -1.7 0.68 0 0 Z " fill="#F8EFE0" transform="translate(107,300)"/>
<path d="M0 0 C0.598125 0.226875 1.19625 0.45375 1.8125 0.6875 C1.9375 3.5625 1.9375 3.5625 1.8125 6.6875 C1.1525 7.3475 0.4925 8.0075 -0.1875 8.6875 C-2.8125 8.3125 -2.8125 8.3125 -5.1875 7.6875 C-5.41803497 4.84423536 -5.54653101 3.22604651 -3.9375 0.8125 C-2.1875 -0.3125 -2.1875 -0.3125 0 0 Z " fill="#D79A35" transform="translate(185.1875,349.3125)"/>
<path d="M0 0 C0.66 0.33 1.32 0.66 2 1 C2 2.65 2 4.3 2 6 C1.01 5.67 0.02 5.34 -1 5 C-2.84316014 9.39482132 -2.84316014 9.39482132 -4 14 C-3.67 14.66 -3.34 15.32 -3 16 C-4.32 15.67 -5.64 15.34 -7 15 C-6.29656016 10.07592112 -5.23522557 5.47045114 -3 1 C-2.01 0.67 -1.02 0.34 0 0 Z " fill="#EFF1F8" transform="translate(331,151)"/>
<path d="M0 0 C0 3.63 0 7.26 0 11 C-4 10 -4 10 -7 8 C-5.84316054 5.30070793 -3.38550714 0 0 0 Z " fill="#6B6965" transform="translate(55,239)"/>
<path d="M0 0 C3.78687839 1.53278411 5.9299932 4.36577089 7.625 8.0625 C7.295 9.0525 6.965 10.0425 6.625 11.0625 C5.125 9.6875 5.125 9.6875 3.625 8.0625 C3.625 7.4025 3.625 6.7425 3.625 6.0625 C2.635 5.7325 1.645 5.4025 0.625 5.0625 C0.625 4.4025 0.625 3.7425 0.625 3.0625 C-1.35036745 3.41036708 -1.35036745 3.41036708 -3.375 4.0625 C-3.705 4.7225 -4.035 5.3825 -4.375 6.0625 C-5.035 6.0625 -5.695 6.0625 -6.375 6.0625 C-6.0625 4.1875 -6.0625 4.1875 -5.375 2.0625 C-2.375 0.0625 -2.375 0.0625 0 0 Z " fill="#F3EFF4" transform="translate(273.375,349.9375)"/>
<path d="M0 0 C3.875 1.75 3.875 1.75 5 4 C5.144375 4.804375 5.28875 5.60875 5.4375 6.4375 C5.88629903 9.22313472 5.88629903 9.22313472 8 12 C8.99 12 9.98 12 11 12 C10.67 12.99 10.34 13.98 10 15 C8.25 14.875 8.25 14.875 6 14 C2 8.77777778 2 8.77777778 2 6 C1.01 6.33 0.02 6.66 -1 7 C-0.67 4.69 -0.34 2.38 0 0 Z " fill="#F9EDEB" transform="translate(214,100)"/>
<path d="M0 0 C1.32 0 2.64 0 4 0 C3.9071875 1.11375 3.9071875 1.11375 3.8125 2.25 C4.03602339 5.52834303 5.01809807 6.46316552 7 9 C7.6875 11.75 7.6875 11.75 8 14 C7.01 14 6.02 14 5 14 C4.731875 12.865625 4.46375 11.73125 4.1875 10.5625 C3.795625 9.386875 3.40375 8.21125 3 7 C2.01 6.67 1.02 6.34 0 6 C0 4.02 0 2.04 0 0 Z " fill="#CA4855" transform="translate(234,55)"/>
<path d="M0 0 C4.17087411 1.39029137 5.18208698 4.27843718 7.1875 7.9375 C7.73954102 8.90719727 7.73954102 8.90719727 8.30273438 9.89648438 C11 14.71553224 11 14.71553224 11 17 C6.98131493 15.66043831 5.87752154 13.09035261 3.8125 9.625 C3.44447266 9.03460938 3.07644531 8.44421875 2.69726562 7.8359375 C0.98258691 5.01101227 0 3.36248948 0 0 Z " fill="#EEEAF0" transform="translate(275,341)"/>
<path d="M0 0 C2.66666667 0 5.33333333 0 8 0 C8 0.66 8 1.32 8 2 C6.35 2.66 4.7 3.32 3 4 C2.67 7.96 2.34 11.92 2 16 C1.34 16 0.68 16 0 16 C0 10.72 0 5.44 0 0 Z " fill="#E4752B" transform="translate(214,262)"/>
<path d="M0 0 C2.28773145 1.81112073 2.95209822 2.60720543 3.3125 5.5625 C3 8 3 8 1 10 C-1.8203125 10.1953125 -1.8203125 10.1953125 -5.125 10.125 C-6.22070312 10.10695312 -7.31640625 10.08890625 -8.4453125 10.0703125 C-9.28835938 10.04710937 -10.13140625 10.02390625 -11 10 C-10.34 9.67 -9.68 9.34 -9 9 C-8.67 8.34 -8.34 7.68 -8 7 C-6.68 7.33 -5.36 7.66 -4 8 C-3.67 6.68 -3.34 5.36 -3 4 C-3 5.32 -3 6.64 -3 8 C-2.01 7.67 -1.02 7.34 0 7 C-0.185625 6.030625 -0.37125 5.06125 -0.5625 4.0625 C-0.706875 3.051875 -0.85125 2.04125 -1 1 C-0.67 0.67 -0.34 0.34 0 0 Z " fill="#F2F6F1" transform="translate(358,236)"/>
<path d="M0 0 C1.65 1.32 3.3 2.64 5 4 C3.68 4 2.36 4 1 4 C0.67 4.99 0.34 5.98 0 7 C0 6.01 0 5.02 0 4 C-3.3 4 -6.6 4 -10 4 C-10 4.99 -10 5.98 -10 7 C-10.66 7 -11.32 7 -12 7 C-11.67 5.35 -11.34 3.7 -11 2 C-7.37 2 -3.74 2 0 2 C0 1.34 0 0.68 0 0 Z " fill="#F8FAF8" transform="translate(359,284)"/>
<path d="M0 0 C3.18678372 2.92352767 5.21723295 5.81612841 7.25 9.625 C7.77078125 10.58664063 8.2915625 11.54828125 8.828125 12.5390625 C10 15 10 15 10 17 C5.82630044 15.60876681 4.77753896 12.71569074 2.75 9.0625 C2.37359375 8.41603516 1.9971875 7.76957031 1.609375 7.10351562 C0.66963203 5.43996327 -0.1732092 3.72248084 -1 2 C-0.67 1.34 -0.34 0.68 0 0 Z " fill="#F9EEED" transform="translate(192,110)"/>
<path d="M0 0 C0.66 0 1.32 0 2 0 C2.33 0.66 2.66 1.32 3 2 C4.32 2 5.64 2 7 2 C6.67 2.99 6.34 3.98 6 5 C5.2575 5.04125 4.515 5.0825 3.75 5.125 C-0.0823993 6.34439978 -0.94265777 8.66568673 -3 12 C-3.66 12 -4.32 12 -5 12 C-3.68938409 7.76570244 -2.05643741 3.92592596 0 0 Z " fill="#FAF4EA" transform="translate(142,324)"/>
<path d="M0 0 C0.66 0 1.32 0 2 0 C2 0.66 2 1.32 2 2 C3.65 2 5.3 2 7 2 C6.67 2.99 6.34 3.98 6 5 C4.35 5 2.7 5 1 5 C-0.32 7.31 -1.64 9.62 -3 12 C-3.66 12 -4.32 12 -5 12 C-4.42365861 7.24518354 -2.44931479 4.02951788 0 0 Z " fill="#F8EFDF" transform="translate(122,313)"/>
<path d="M0 0 C4.62 0 9.24 0 14 0 C14 0.99 14 1.98 14 3 C9.38 3 4.76 3 0 3 C0 2.01 0 1.02 0 0 Z " fill="#D5E3D3" transform="translate(347,293)"/>
<path d="M0 0 C2.625 0.375 2.625 0.375 5 1 C5.042721 2.66611905 5.04063832 4.33382885 5 6 C4 7 4 7 1.4375 7.0625 C0.2309375 7.0315625 0.2309375 7.0315625 -1 7 C-1.625 4.625 -1.625 4.625 -2 2 C-1.34 1.34 -0.68 0.68 0 0 Z " fill="#FCF5EF" transform="translate(256,263)"/>
<path d="M0 0 C0.99 0.33 1.98 0.66 3 1 C2.67 3.31 2.34 5.62 2 8 C-4.625 9.25 -4.625 9.25 -8 7 C-8 6.01 -8 5.02 -8 4 C-7.13375 4.5259375 -7.13375 4.5259375 -6.25 5.0625 C-3.64198224 6.14917407 -2.60582371 5.93065133 0 5 C0 3.35 0 1.7 0 0 Z " fill="#E57A31" transform="translate(199,270)"/>
<path d="M0 0 C0.66 0 1.32 0 2 0 C2 0.99 2 1.98 2 3 C2.99 3.33 3.98 3.66 5 4 C3.68 4 2.36 4 1 4 C0.67 4.99 0.34 5.98 0 7 C0 6.01 0 5.02 0 4 C-1.62580966 4.11398665 -3.25067157 4.24155659 -4.875 4.375 C-6.23238281 4.47941406 -6.23238281 4.47941406 -7.6171875 4.5859375 C-10.17941903 4.79568132 -10.17941903 4.79568132 -12 7 C-11.67 5.35 -11.34 3.7 -11 2 C-7.37 2 -3.74 2 0 2 C0 1.34 0 0.68 0 0 Z " fill="#F6F9F6" transform="translate(359,258)"/>
<path d="M0 0 C4.62 0 9.24 0 14 0 C14 2.33333333 14 4.66666667 14 7 C13.01 7 12.02 7 11 7 C10.67 5.68 10.34 4.36 10 3 C6.7 2.67 3.4 2.34 0 2 C0 1.34 0 0.68 0 0 Z " fill="#E3ECE2" transform="translate(347,250)"/>
<path d="M0 0 C0.33 0.99 0.66 1.98 1 3 C2.62580966 2.88601335 4.25067157 2.75844341 5.875 2.625 C6.77992187 2.55539063 7.68484375 2.48578125 8.6171875 2.4140625 C11.17941903 2.20431868 11.17941903 2.20431868 13 0 C13 1.65 13 3.3 13 5 C9.04 5 5.08 5 1 5 C0.67 5.66 0.34 6.32 0 7 C0 6.34 0 5.68 0 5 C-1.32 4.34 -2.64 3.68 -4 3 C-2.68 3 -1.36 3 0 3 C0 2.01 0 1.02 0 0 Z " fill="#FBFBF8" transform="translate(103,180)"/>
<path d="M0 0 C-0.33 0.99 -0.66 1.98 -1 3 C-1.66 3 -2.32 3 -3 3 C-3 5.31 -3 7.62 -3 10 C-1.02 10.66 0.96 11.32 3 12 C2.67 12.66 2.34 13.32 2 14 C-3.75 13.25 -3.75 13.25 -6 11 C-6.44959697 6.95362726 -6.65196289 4.84755176 -4.125 1.5625 C-2 0 -2 0 0 0 Z " fill="#FAF3E8" transform="translate(112,308)"/>
<path d="M0 0 C0.66 0 1.32 0 2 0 C1.773125 1.051875 1.54625 2.10375 1.3125 3.1875 C0.96352305 7.44501883 1.58896929 8.624557 4 12 C4 12.66 4 13.32 4 14 C3.01 14 2.02 14 1 14 C0.13353333 12.56988027 -0.71781829 11.13059381 -1.5625 9.6875 C-2.03816406 8.88699219 -2.51382813 8.08648437 -3.00390625 7.26171875 C-4 5 -4 5 -3 2 C-2.67 2.33 -2.34 2.66 -2 3 C-1.34 2.01 -0.68 1.02 0 0 Z " fill="#F6E6E4" transform="translate(168,131)"/>
<path d="M0 0 C0.66 0 1.32 0 2 0 C-0.08950914 7.23291627 -0.08950914 7.23291627 -3 9 C-6 8.9375 -6 8.9375 -9 8 C-10.875 5.9375 -10.875 5.9375 -12 4 C-11.01 4 -10.02 4 -9 4 C-9 4.66 -9 5.32 -9 6 C-6.6704053 6.50241322 -6.6704053 6.50241322 -4 6 C-1.78831775 3.05763218 -1.78831775 3.05763218 0 0 Z " fill="#FAF4EA" transform="translate(186,356)"/>
<path d="M0 0 C0.99 0.33 1.98 0.66 3 1 C2.01 2.485 2.01 2.485 1 4 C0.34 4 -0.32 4 -1 4 C-0.34 5.98 0.32 7.96 1 10 C2.65 10.33 4.3 10.66 6 11 C5.67 11.66 5.34 12.32 5 13 C2.125 12.6875 2.125 12.6875 -1 12 C-3 9 -3 9 -2.75 5.4375 C-2 2 -2 2 0 0 Z " fill="#F9F1E4" transform="translate(78,292)"/>
<path d="M0 0 C2.475 0.99 2.475 0.99 5 2 C5 3.32 5 4.64 5 6 C2.5 8.25 2.5 8.25 0 10 C0 6.7 0 3.4 0 0 Z " fill="#6B6A64" transform="translate(405,229)"/>
<path d="M0 0 C0.66 0.33 1.32 0.66 2 1 C1.525625 1.5775 1.05125 2.155 0.5625 2.75 C-0.9484867 4.92582084 -1.54036151 6.42602448 -2 9 C-2.66 9 -3.32 9 -4 9 C-4.66 10.65 -5.32 12.3 -6 14 C-6.66 13.67 -7.32 13.34 -8 13 C-4.06578947 2.71052632 -4.06578947 2.71052632 0 0 Z " fill="#FAF4EA" transform="translate(130,320)"/>
<path d="M0 0 C1.65322266 0.01740234 1.65322266 0.01740234 3.33984375 0.03515625 C4.99693359 0.04869141 4.99693359 0.04869141 6.6875 0.0625 C7.54214844 0.07410156 8.39679688 0.08570313 9.27734375 0.09765625 C7.27734375 2.09765625 7.27734375 2.09765625 4.65234375 2.22265625 C3.86859375 2.18140625 3.08484375 2.14015625 2.27734375 2.09765625 C1.94734375 2.75765625 1.61734375 3.41765625 1.27734375 4.09765625 C1.27734375 3.43765625 1.27734375 2.77765625 1.27734375 2.09765625 C0.28734375 2.42765625 -0.70265625 2.75765625 -1.72265625 3.09765625 C-1.39265625 5.07765625 -1.06265625 7.05765625 -0.72265625 9.09765625 C-1.71265625 9.59265625 -1.71265625 9.59265625 -2.72265625 10.09765625 C-4.21372082 7.11552712 -3.84207092 4.38155967 -3.72265625 1.09765625 C-2.72265625 0.09765625 -2.72265625 0.09765625 0 0 Z " fill="#FAFBF7" transform="translate(106.72265625,134.90234375)"/>
<path d="M0 0 C1.32 0.33 2.64 0.66 4 1 C3.45660208 5.56454251 2.20536179 8.9728176 0 13 C-0.99 12.67 -1.98 12.34 -3 12 C-2.505 11.13375 -2.01 10.2675 -1.5 9.375 C0.0477761 5.89250377 0.26802896 3.75240542 0 0 Z " fill="#FAF2E6" transform="translate(174,342)"/>
<path d="M0 0 C1.65 0 3.3 0 5 0 C4.01 0.33 3.02 0.66 2 1 C2 2.98 2 4.96 2 7 C2.66 7.33 3.32 7.66 4 8 C3.34 8 2.68 8 2 8 C2 10.31 2 12.62 2 15 C1.34 15 0.68 15 0 15 C0 10.05 0 5.1 0 0 Z " fill="#C6384A" transform="translate(232,53)"/>
<path d="M0 0 C0.66 0 1.32 0 2 0 C3.16306443 3.54950034 2.92365049 6.55823948 2.5625 10.25 C2.40974609 11.86648438 2.40974609 11.86648438 2.25390625 13.515625 C2.17011719 14.33546875 2.08632812 15.1553125 2 16 C1.34 16 0.68 16 0 16 C0 10.72 0 5.44 0 0 Z " fill="#E36F23" transform="translate(238,262)"/>
<path d="M0 0 C3.64243036 0.59468251 4.77418769 1.68361562 7.0625 4.5 C2.72916667 4.5 -1.60416667 4.5 -5.9375 4.5 C-4.22288215 1.45179049 -3.52623333 0.60020993 0 0 Z " fill="#F0F1E3" transform="translate(108.9375,240.5)"/>
<path d="M0 0 C0.99 0 1.98 0 3 0 C5 3 5 3 4.625 5.6875 C4.41875 6.450625 4.2125 7.21375 4 8 C2.68 8.33 1.36 8.66 0 9 C0 6.03 0 3.06 0 0 Z " fill="#A7B162" transform="translate(110,203)"/>
<path d="M0 0 C0.4125 0.515625 0.825 1.03125 1.25 1.5625 C2.89081865 3.25326429 2.89081865 3.25326429 5.0625 2.8125 C7.18712526 2.06529664 7.18712526 2.06529664 9 0 C9.33 1.32 9.66 2.64 10 4 C6.1496895 6.56687367 4.41430237 5.83288724 0 5 C-0.33 4.01 -0.66 3.02 -1 2 C-0.67 1.34 -0.34 0.68 0 0 Z " fill="#E88A46" transform="translate(224,273)"/>
<path d="M0 0 C0.33 1.32 0.66 2.64 1 4 C2.32 4.33 3.64 4.66 5 5 C3.35 5 1.7 5 0 5 C-0.33 6.65 -0.66 8.3 -1 10 C-1.99 10 -2.98 10 -4 10 C-3.52449439 8.51965236 -3.04448784 7.04074979 -2.5625 5.5625 C-2.29566406 4.73878906 -2.02882813 3.91507812 -1.75390625 3.06640625 C-1 1 -1 1 0 0 Z " fill="#6FAB7A" transform="translate(381,331)"/>
<path d="M0 0 C0.99 0.33 1.98 0.66 3 1 C1.02 4.63 -0.96 8.26 -3 12 C-3.66 12 -4.32 12 -5 12 C-4.42365861 7.24518354 -2.44931479 4.02951788 0 0 Z " fill="#EAEEF7" transform="translate(335,157)"/>
<path d="M0 0 C3.47000311 1.1566677 3.84701459 1.85726716 5.6875 4.875 C6.12449219 5.57367188 6.56148437 6.27234375 7.01171875 6.9921875 C8 9 8 9 8 12 C4.3392481 10.77974937 4.07660559 9.873509 2.3125 6.5625 C1.87550781 5.75941406 1.43851563 4.95632812 0.98828125 4.12890625 C0 2 0 2 0 0 Z " fill="#F7E7E5" transform="translate(221,100)"/>
<path d="M0 0 C3 1 3 1 4.38671875 3.28515625 C4.81597656 4.20167969 5.24523437 5.11820312 5.6875 6.0625 C6.34298828 7.44115234 6.34298828 7.44115234 7.01171875 8.84765625 C7.33785156 9.55792969 7.66398437 10.26820313 8 11 C7.01 11 6.02 11 5 11 C4.16151196 9.54462432 3.32936066 8.08559627 2.5 6.625 C1.80390625 5.40683594 1.80390625 5.40683594 1.09375 4.1640625 C0 2 0 2 0 0 Z " fill="#F2EEF3" transform="translate(262,356)"/>
<path d="M0 0 C0.66 0 1.32 0 2 0 C0.68139111 4.61513112 -1.21355437 8.09897612 -4 12 C-4.66 11.34 -5.32 10.68 -6 10 C-5.05065487 8.32819726 -4.09026687 6.66266064 -3.125 5 C-2.59132812 4.071875 -2.05765625 3.14375 -1.5078125 2.1875 C-1.01023438 1.465625 -0.51265625 0.74375 0 0 Z " fill="#FAF3E6" transform="translate(165,337)"/>
<path d="M0 0 C0.66 0 1.32 0 2 0 C0.68938409 4.23429756 -0.94356259 8.07407404 -3 12 C-3.99 11.67 -4.98 11.34 -6 11 C-4.02 7.37 -2.04 3.74 0 0 Z " fill="#F9F1E3" transform="translate(150,329)"/>
<path d="M0 0 C1.98 0.66 3.96 1.32 6 2 C6 2.33 6 2.66 6 3 C4.02 3.33 2.04 3.66 0 4 C-0.15149298 7.62885324 -0.15149298 7.62885324 1 11 C0.01 11 -0.98 11 -2 11 C-3.39935013 8.20129973 -3.25265405 6.09501208 -3 3 C-1.5 1.125 -1.5 1.125 0 0 Z " fill="#E2ECE0" transform="translate(350,298)"/>
<path d="M0 0 C1.32 0 2.64 0 4 0 C4 2.31 4 4.62 4 7 C1.525 6.01 1.525 6.01 -1 5 C-0.67 3.35 -0.34 1.7 0 0 Z " fill="#AFB76F" transform="translate(105,205)"/>
<path d="M0 0 C0.66 0 1.32 0 2 0 C0.68139111 4.61513112 -1.21355437 8.09897612 -4 12 C-4.66 11.34 -5.32 10.68 -6 10 C-5.05065487 8.32819726 -4.09026687 6.66266064 -3.125 5 C-2.59132813 4.071875 -2.05765625 3.14375 -1.5078125 2.1875 C-1.01023437 1.465625 -0.51265625 0.74375 0 0 Z " fill="#EEF0F8" transform="translate(371,178)"/>
<path d="M0 0 C1.12831894 1.69247841 2.24359183 3.39438678 3.3125 5.125 C5.42473111 7.47192346 6.92036816 7.66706683 10 8 C9.67 8.66 9.34 9.32 9 10 C5.625 9.6875 5.625 9.6875 2 9 C-0.29013653 5.5647952 -0.17842973 4.014669 0 0 Z " fill="#F6F4F7" transform="translate(240,370)"/>
<path d="M0 0 C1.32 0 2.64 0 4 0 C4.33 2.31 4.66 4.62 5 7 C3.68 7 2.36 7 1 7 C-0.0625 5.1875 -0.0625 5.1875 -1 3 C-0.67 2.01 -0.34 1.02 0 0 Z " fill="#A3C9A9" transform="translate(381,327)"/>
<path d="M0 0 C0.66 0 1.32 0 2 0 C1.42365861 4.75481646 -0.55068521 7.97048212 -3 12 C-3.66 12 -4.32 12 -5 12 C-4.42365861 7.24518354 -2.44931479 4.02951788 0 0 Z " fill="#EEF1F8" transform="translate(279,125)"/>
<path d="M0 0 C3 1 3 1 4.38671875 3.28515625 C4.81597656 4.20167969 5.24523437 5.11820312 5.6875 6.0625 C6.34298828 7.44115234 6.34298828 7.44115234 7.01171875 8.84765625 C7.33785156 9.55792969 7.66398438 10.26820312 8 11 C7.01 11 6.02 11 5 11 C4.16151196 9.54462432 3.32936066 8.08559627 2.5 6.625 C1.80390625 5.40683594 1.80390625 5.40683594 1.09375 4.1640625 C0 2 0 2 0 0 Z " fill="#F8EDEB" transform="translate(199,113)"/>
<path d="M0 0 C0.99 0.33 1.98 0.66 3 1 C3.6875 3.0625 3.6875 3.0625 4 5 C5.65 5.33 7.3 5.66 9 6 C9 6.66 9 7.32 9 8 C6.1875 8.25 6.1875 8.25 3 8 C1.125 6.25 1.125 6.25 0 4 C0 2.68 0 1.36 0 0 Z " fill="#DFE4F2" transform="translate(381,193)"/>
<path d="M0 0 C2.0625 0.4375 2.0625 0.4375 4 1 C4.33 2.65 4.66 4.3 5 6 C3.02 5.34 1.04 4.68 -1 4 C-1 1 -1 1 0 0 Z " fill="#7695CB" transform="translate(307,143)"/>
<path d="M0 0 C0.99 0.33 1.98 0.66 3 1 C2.67 2.65 2.34 4.3 2 6 C0.35 5.67 -1.3 5.34 -3 5 C-1.125 1.125 -1.125 1.125 0 0 Z " fill="#CB4E58" transform="translate(191,125)"/>
<path d="M0 0 C0.78375 0.04125 1.5675 0.0825 2.375 0.125 C0.725 1.775 -0.925 3.425 -2.625 5.125 C-1.305 5.455 0.015 5.785 1.375 6.125 C0.385 6.125 -0.605 6.125 -1.625 6.125 C-1.625 6.785 -1.625 7.445 -1.625 8.125 C-2.615 7.795 -3.605 7.465 -4.625 7.125 C-4.75 4.75 -4.75 4.75 -4.625 2.125 C-2.625 0.125 -2.625 0.125 0 0 Z " fill="#EBE5ED" transform="translate(233.625,372.875)"/>
<path d="M0 0 C0.66 0 1.32 0 2 0 C1.88590407 1.45922693 1.75834456 2.91740598 1.625 4.375 C1.55539062 5.18710938 1.48578125 5.99921875 1.4140625 6.8359375 C1 9 1 9 -1 11 C-2.26264601 6.70700357 -1.62950412 4.12168689 0 0 Z " fill="#E8ECF6" transform="translate(375,180)"/>
<path d="M0 0 C0.66 0.33 1.32 0.66 2 1 C-1.44615385 7.76923077 -1.44615385 7.76923077 -4.25 8.9375 C-4.8275 8.958125 -5.405 8.97875 -6 9 C-4.68775452 5.06326356 -3.08089673 2.77280706 0 0 Z " fill="#7392CA" transform="translate(282,128)"/>
<path d="M0 0 C4.51720311 -0.36625971 4.51720311 -0.36625971 6.8125 1.375 C8 3 8 3 8 5 C7.01 5 6.02 5 5 5 C5 4.34 5 3.68 5 3 C3.35 3 1.7 3 0 3 C0 2.01 0 1.02 0 0 Z " fill="#EA9758" transform="translate(194,261)"/>
<path d="M0 0 C2.125 0.375 2.125 0.375 4 1 C4.33 2.65 4.66 4.3 5 6 C2.08482708 4.92598892 0.22189824 4.22189824 -2 2 C-1.34 1.34 -0.68 0.68 0 0 Z " fill="#7090C8" transform="translate(387,189)"/>
<path d="M0 0 C1.32 0.33 2.64 0.66 4 1 C4.33 2.32 4.66 3.64 5 5 C3.0625 5.5625 3.0625 5.5625 1 6 C0 5 0 5 -0.0625 2.4375 C-0.041875 1.633125 -0.02125 0.82875 0 0 Z " fill="#A4AE5C" transform="translate(110,137)"/>
<path d="M0 0 C0.99 0.66 1.98 1.32 3 2 C3.3125 5.5 3.3125 5.5 3 9 C1 11 1 11 -1.625 11.125 C-2.40875 11.08375 -3.1925 11.0425 -4 11 C-3.175 10.4225 -2.35 9.845 -1.5 9.25 C-0.675 8.5075 0.15 7.765 1 7 C1 5.68 1 4.36 1 3 C0.34 2.34 -0.32 1.68 -1 1 C-0.67 0.67 -0.34 0.34 0 0 Z " fill="#F8F9F4" transform="translate(113,255)"/>
<path d="M0 0 C1.32 0.33 2.64 0.66 4 1 C4.33 2.65 4.66 4.3 5 6 C3.35 5.67 1.7 5.34 0 5 C0 3.35 0 1.7 0 0 Z " fill="#67A773" transform="translate(349,238)"/>
<path d="M0 0 C1.65 0 3.3 0 5 0 C5 1.65 5 3.3 5 5 C3.02 4.34 1.04 3.68 -1 3 C-0.67 2.01 -0.34 1.02 0 0 Z " fill="#D89D3B" transform="translate(80,293)"/>
<path d="M0 0 C1.32 0.33 2.64 0.66 4 1 C5.125 7.75 5.125 7.75 4 10 C3.34 10 2.68 10 2 10 C2.33 7.69 2.66 5.38 3 3 C2.34 2.67 1.68 2.34 1 2 C0.67 1.34 0.34 0.68 0 0 Z " fill="#DAE7D9" transform="translate(356,272)"/>
<path d="M0 0 C0.33 0.66 0.66 1.32 1 2 C2.98 1.67 4.96 1.34 7 1 C7 1.33 7 1.66 7 2 C9.31 2.33 11.62 2.66 14 3 C14 3.33 14 3.66 14 4 C12.04174127 4.02694851 10.08337774 4.04637218 8.125 4.0625 C7.03445312 4.07410156 5.94390625 4.08570313 4.8203125 4.09765625 C2 4 2 4 0 3 C0 2.01 0 1.02 0 0 Z " fill="#AAB365" transform="translate(102,224)"/>
<path d="M0 0 C1.98 0 3.96 0 6 0 C6 0.99 6 1.98 6 3 C4.35 3.33 2.7 3.66 1 4 C0.67 2.68 0.34 1.36 0 0 Z " fill="#6A8DC6" transform="translate(349,175)"/>
<path d="M0 0 C0.33 0 0.66 0 1 0 C1.1875 2.375 1.1875 2.375 1 5 C-2.4352048 7.29013653 -3.985331 7.17842973 -8 7 C-8 6.34 -8 5.68 -8 5 C-6.865625 4.731875 -5.73125 4.46375 -4.5625 4.1875 C-3.386875 3.795625 -2.21125 3.40375 -1 3 C-0.67 2.01 -0.34 1.02 0 0 Z " fill="#F8F8F2" transform="translate(115,166)"/>
<path d="M0 0 C1.67542976 0.28604898 3.34385343 0.61781233 5 1 C5 1.66 5 2.32 5 3 C3.02 3.99 1.04 4.98 -1 6 C-1.042721 4.33388095 -1.04063832 2.66617115 -1 1 C-0.67 0.67 -0.34 0.34 0 0 Z " fill="#C94552" transform="translate(176,128)"/>
<path d="M0 0 C0.66 0 1.32 0 2 0 C2 1.65 2 3.3 2 5 C0.68 5.33 -0.64 5.66 -2 6 C-2 2 -2 2 0 0 Z " fill="#9877A0" transform="translate(275,356)"/>
<path d="M0 0 C1.65 0.33 3.3 0.66 5 1 C5 2.32 5 3.64 5 5 C3.02 4.34 1.04 3.68 -1 3 C-0.67 2.01 -0.34 1.02 0 0 Z " fill="#D79A35" transform="translate(111,310)"/>
<path d="M0 0 C0.66 0.33 1.32 0.66 2 1 C1.67 3.64 1.34 6.28 1 9 C0.34 8.67 -0.32 8.34 -1 8 C-1.75 5.0625 -1.75 5.0625 -2 2 C-1.34 1.34 -0.68 0.68 0 0 Z " fill="#E8E9D4" transform="translate(104,148)"/>
<path d="M0 0 C3.75376152 1.25125384 4.24073289 2.5652404 6 6 C6 6.66 6 7.32 6 8 C2.24623848 6.74874616 1.75926711 5.4347596 0 2 C0 1.34 0 0.68 0 0 Z " fill="#F4F1F5" transform="translate(280,350)"/>
<path d="M0 0 C0.66 0 1.32 0 2 0 C2.33 0.66 2.66 1.32 3 2 C4.32 2 5.64 2 7 2 C6.67 2.99 6.34 3.98 6 5 C1.25 5.125 1.25 5.125 -1 4 C-0.67 2.68 -0.34 1.36 0 0 Z " fill="#F6E9D4" transform="translate(142,324)"/>
<path d="M0 0 C0.99 0.33 1.98 0.66 3 1 C3.36923077 7.52307692 3.36923077 7.52307692 1.5 9.9375 C1.005 10.288125 0.51 10.63875 0 11 C-0.33 10.01 -0.66 9.02 -1 8 C-0.34 7.67 0.32 7.34 1 7 C0.67 4.69 0.34 2.38 0 0 Z " fill="#F4F5EC" transform="translate(113,203)"/>
<path d="M0 0 C1.32 0.66 2.64 1.32 4 2 C3.34 3.98 2.68 5.96 2 8 C1.01 8 0.02 8 -1 8 C-1 5.16032769 -0.59732819 2.76264289 0 0 Z " fill="#7694CB" transform="translate(292,132)"/>
<path d="M0 0 C1.2065625 0.0309375 1.2065625 0.0309375 2.4375 0.0625 C1.4475 0.7225 0.4575 1.3825 -0.5625 2.0625 C-0.81280977 4.64630177 -0.81280977 4.64630177 -0.5625 7.0625 C-1.5525 6.7325 -2.5425 6.4025 -3.5625 6.0625 C-3.605221 4.39638095 -3.60313832 2.72867115 -3.5625 1.0625 C-2.5625 0.0625 -2.5625 0.0625 0 0 Z " fill="#F3F5FA" transform="translate(350.5625,172.9375)"/>
<path d="M0 0 C1.32 0 2.64 0 4 0 C3.67 1.65 3.34 3.3 3 5 C2.01 5 1.02 5 0 5 C0 3.35 0 1.7 0 0 Z " fill="#E8B3B5" transform="translate(234,55)"/>
<path d="M0 0 C0.99 0 1.98 0 3 0 C3.66 1.98 4.32 3.96 5 6 C2.525 5.01 2.525 5.01 0 4 C0 2.68 0 1.36 0 0 Z " fill="#EA9352" transform="translate(251,278)"/>
<path d="M0 0 C0.99 0.33 1.98 0.66 3 1 C2.67 2.65 2.34 4.3 2 6 C1.01 6 0.02 6 -1 6 C-1.042721 4.33388095 -1.04063832 2.66617115 -1 1 C-0.67 0.67 -0.34 0.34 0 0 Z " fill="#EECBC7" transform="translate(173,128)"/>
<path d="M0 0 C2.52588702 2.36292656 3.88820837 3.66462511 5 7 C3.125 6.8125 3.125 6.8125 1 6 C-0.25 3.4375 -0.25 3.4375 -1 1 C-0.67 0.67 -0.34 0.34 0 0 Z " fill="#F6E3E0" transform="translate(192,110)"/>
<path d="M0 0 C0.99 0.33 1.98 0.66 3 1 C2.01 2.485 2.01 2.485 1 4 C0.34 4 -0.32 4 -1 4 C-1.33 4.99 -1.66 5.98 -2 7 C-2.33 6.01 -2.66 5.02 -3 4 C-1.5625 1.8125 -1.5625 1.8125 0 0 Z " fill="#FCF8F2" transform="translate(78,292)"/>
<path d="M0 0 C1.98 0.99 1.98 0.99 4 2 C4 2.66 4 3.32 4 4 C5.32 4.33 6.64 4.66 8 5 C5.69 4.67 3.38 4.34 1 4 C0.67 2.68 0.34 1.36 0 0 Z " fill="#E9904D" transform="translate(191,274)"/>
<path d="M0 0 C0.66 0 1.32 0 2 0 C1.67 2.31 1.34 4.62 1 7 C0.01 7 -0.98 7 -2 7 C-2.125 4.625 -2.125 4.625 -2 2 C-1.34 1.34 -0.68 0.68 0 0 Z " fill="#E57A30" transform="translate(254,262)"/>
<path d="M0 0 C0.78375 0.04125 1.5675 0.0825 2.375 0.125 C2.045 1.115 1.715 2.105 1.375 3.125 C-1.6875 4.3125 -1.6875 4.3125 -4.625 5.125 C-4.625 1.22254579 -3.95783286 0.18846823 0 0 Z " fill="#EB985B" transform="translate(228.625,260.875)"/>
<path d="M0 0 C0.66 0 1.32 0 2 0 C1.67 1.65 1.34 3.3 1 5 C-0.32 5.33 -1.64 5.66 -3 6 C-2.42655063 3.13275314 -2.1385485 2.1385485 0 0 Z " fill="#F5F7FB" transform="translate(385,188)"/>
</svg>
